<svg width="151" height="51" viewBox="0 0 151 51" fill="none" xmlns="http://www.w3.org/2000/svg">
<g clip-path="url(#clip0_348_6536)">
<path d="M8.31368 35.0586H9.88077V42.482H8.12239V37.7293L5.437 41.1872H4.43642L1.75102 37.7293V42.482H0V35.0586H1.64066L4.98085 39.4141L8.31368 35.0586ZM16.517 36.839C17.8192 36.839 18.3637 37.3688 18.3637 38.6857V39.9512H12.7427V40.4147C12.7427 40.9738 12.9267 41.1504 13.4858 41.1504H16.0609C16.4949 41.1504 16.6568 40.9885 16.6568 40.5545V40.4073H18.3637V40.8929C18.3637 41.9965 17.8634 42.482 16.7745 42.482H12.8163C11.5141 42.482 10.9696 41.9523 10.9696 40.6354V38.6857C10.9696 37.3688 11.5141 36.839 12.8163 36.839H16.517ZM12.7427 38.9064H16.6568V38.8034C16.6568 38.2443 16.4729 38.0751 15.9137 38.0751H13.4858C12.9267 38.0751 12.7427 38.2443 12.7427 38.8034V38.9064ZM25.0661 35.0586H26.8245V42.482H25.3604L25.1985 41.7684C24.8454 42.0627 24.529 42.254 24.2568 42.3423C23.9846 42.4379 23.58 42.482 23.0502 42.482H21.1815C19.8793 42.482 19.3348 41.9523 19.3348 40.6354V38.6857C19.3348 37.3688 19.8793 36.839 21.1815 36.839H23.0502C23.5505 36.839 23.9405 36.8685 24.2053 36.942C24.4702 37.0156 24.7571 37.1848 25.0661 37.4423V35.0586ZM23.6315 41.1062C24.1097 41.1062 24.4702 41.0106 24.7277 40.812L25.0661 40.5545V38.774L24.7277 38.5165C24.4849 38.3179 24.1244 38.2222 23.6315 38.2222H21.8363C21.2771 38.2222 21.0932 38.3914 21.0932 38.9579V40.3779C21.0932 40.937 21.2771 41.1062 21.8363 41.1062H23.6315ZM35.8298 35.0586V36.6698H32.6294V42.482H30.7606V36.6698H27.5602V35.0586H35.8298ZM41.1123 36.839V38.4209H39.3318C38.8536 38.4209 38.4931 38.5239 38.2282 38.7299L37.8971 38.9874V42.4894H36.1388V36.8464H37.4116L37.6029 37.641L37.647 37.6116C38.0149 37.2805 38.3459 37.0818 38.6255 36.9862C38.8904 36.8905 39.3024 36.8464 39.8468 36.8464H41.1196L41.1123 36.839ZM47.0863 36.839C48.3886 36.839 48.933 37.3688 48.933 38.6857V42.482H47.4616L47.2997 41.8052C46.9613 42.0995 46.6743 42.2908 46.4315 42.3643C46.1888 42.4379 45.8135 42.482 45.2985 42.482H42.878C41.9878 42.482 41.539 42.0333 41.539 41.143V40.525C41.539 39.6348 41.9878 39.186 42.878 39.186H47.1599V38.7814C47.1599 38.2222 46.976 38.0456 46.4168 38.0456H44.0919C43.6579 38.0456 43.496 38.2075 43.496 38.6416V38.8034H41.7891V38.4209C41.7891 37.3173 42.2894 36.8317 43.3783 36.8317H47.079L47.0863 36.839ZM45.8577 41.349C46.2403 41.349 46.5493 41.2534 46.792 41.0768L47.1599 40.7899V40.1572H43.8197C43.4298 40.1572 43.3121 40.2822 43.3121 40.6648V40.8414C43.3121 41.2313 43.4298 41.349 43.8197 41.349H45.8577ZM55.5987 36.839C56.9009 36.839 57.4453 37.3688 57.4453 38.6857V42.482H55.6722V38.98C55.6722 38.4209 55.503 38.2516 54.9439 38.2516H53.2591C52.7808 38.2516 52.4203 38.3546 52.1555 38.5606L51.8244 38.8181V42.4894H50.066V36.8464H51.5301L51.692 37.5601C52.0525 37.2658 52.3688 37.0745 52.6337 36.9788C52.8986 36.8905 53.3032 36.8538 53.8329 36.8538H55.606L55.5987 36.839ZM58.4753 40.6354H60.1822V40.9665C60.1822 41.2092 60.2705 41.2975 60.5207 41.2975H63.6475C63.905 41.2975 63.9859 41.2092 63.9859 40.9665V40.6501C63.9859 40.4073 63.8976 40.3411 63.6475 40.3117L59.8585 40.0542C58.9977 40.0027 58.5784 39.5759 58.5784 38.7814V38.1266C58.5784 37.3099 59.0566 36.8464 59.8585 36.8464H64.3244C65.1337 36.8464 65.6045 37.3246 65.6045 38.1413V38.6269H63.8976V38.362C63.8976 38.1192 63.8093 38.0309 63.5592 38.0309H60.6825C60.425 38.0309 60.3441 38.1192 60.3441 38.362V38.4797C60.3441 38.7372 60.4324 38.7961 60.6825 38.8329L64.4715 39.0904C65.3323 39.1419 65.7517 39.5686 65.7517 40.3632V41.2092C65.7517 42.0259 65.2734 42.4894 64.4715 42.4894H59.7481C58.9389 42.4894 58.468 42.0112 58.468 41.1945V40.6427L58.4753 40.6354ZM71.9023 40.9738H77.6925V42.482H70.0262V35.0586H77.5895V36.5668H71.9023V37.9794H77.1627V39.3552H71.9023V40.9812V40.9738ZM77.972 42.482L80.8487 39.6054L78.0824 36.839H80.4661L82.1657 38.6416L83.8652 36.839H86.1386L83.3796 39.6054L86.2416 42.482H83.8578L82.0627 40.5618L80.2601 42.482H77.9794H77.972ZM92.4437 36.839C93.746 36.839 94.2904 37.3688 94.2904 38.6857V40.6354C94.2904 41.9523 93.746 42.482 92.4437 42.482H90.5676C90.0673 42.482 89.6848 42.4379 89.4199 42.3643C89.155 42.2908 88.8681 42.1289 88.5591 41.8788V44.1816H86.8007V36.839H88.2648L88.4267 37.5527C88.7872 37.2584 89.1035 37.0671 89.3684 36.9715C89.6333 36.8832 90.0379 36.8464 90.5676 36.8464H92.4437V36.839ZM92.5173 38.9506C92.5173 38.3914 92.3481 38.2149 91.7816 38.2149H89.9864C89.5008 38.2149 89.1256 38.3105 88.8828 38.5091L88.5517 38.7666V40.5471L88.8828 40.8046C89.1477 41.0032 89.5082 41.0989 89.9864 41.0989H91.7816C92.3407 41.0989 92.5173 40.9297 92.5173 40.3705V38.9506ZM100.338 36.839V38.4209H98.5576C98.0794 38.4209 97.7189 38.5239 97.454 38.7299L97.1229 38.9874V42.4894H95.3645V36.8464H96.6374L96.8286 37.641L96.8728 37.6116C97.2406 37.2805 97.5717 37.0818 97.8513 36.9862C98.1162 36.8905 98.5282 36.8464 99.0726 36.8464H100.345L100.338 36.839ZM106.503 36.839C107.806 36.839 108.35 37.3688 108.35 38.6857V39.9512H102.729V40.4147C102.729 40.9738 102.913 41.1504 103.472 41.1504H106.047C106.481 41.1504 106.643 40.9885 106.643 40.5545V40.4073H108.35V40.8929C108.35 41.9965 107.85 42.482 106.761 42.482H102.803C101.5 42.482 100.956 41.9523 100.956 40.6354V38.6857C100.956 37.3688 101.5 36.839 102.803 36.839H106.503ZM102.729 38.9064H106.643V38.8034C106.643 38.2443 106.459 38.0751 105.9 38.0751H103.472C102.913 38.0751 102.729 38.2443 102.729 38.8034V38.9064ZM109.329 40.6354H111.035V40.9665C111.035 41.2092 111.124 41.2975 111.374 41.2975H114.501C114.758 41.2975 114.839 41.2092 114.839 40.9665V40.6501C114.839 40.4073 114.751 40.3411 114.501 40.3117L110.712 40.0542C109.851 40.0027 109.432 39.5759 109.432 38.7814V38.1266C109.432 37.3099 109.91 36.8464 110.712 36.8464H115.178C115.987 36.8464 116.458 37.3246 116.458 38.1413V38.6269H114.751V38.362C114.751 38.1192 114.663 38.0309 114.412 38.0309H111.536C111.278 38.0309 111.197 38.1192 111.197 38.362V38.4797C111.197 38.7372 111.286 38.7961 111.536 38.8329L115.325 39.0904C116.186 39.1419 116.605 39.5686 116.605 40.3632V41.2092C116.605 42.0259 116.127 42.4894 115.325 42.4894H110.601C109.792 42.4894 109.321 42.0112 109.321 41.1945V40.6427L109.329 40.6354ZM117.51 40.6354H119.217V40.9665C119.217 41.2092 119.305 41.2975 119.555 41.2975H122.682C122.939 41.2975 123.02 41.2092 123.02 40.9665V40.6501C123.02 40.4073 122.932 40.3411 122.682 40.3117L118.893 40.0542C118.032 40.0027 117.613 39.5759 117.613 38.7814V38.1266C117.613 37.3099 118.091 36.8464 118.893 36.8464H123.359C124.168 36.8464 124.639 37.3246 124.639 38.1413V38.6269H122.932V38.362C122.932 38.1192 122.844 38.0309 122.594 38.0309H119.717C119.46 38.0309 119.379 38.1192 119.379 38.362V38.4797C119.379 38.7372 119.467 38.7961 119.717 38.8329L123.506 39.0904C124.367 39.1419 124.786 39.5686 124.786 40.3632V41.2092C124.786 42.0259 124.308 42.4894 123.506 42.4894H118.783C117.973 42.4894 117.502 42.0112 117.502 41.1945V40.6427L117.51 40.6354ZM129.112 35.0586H131.003V42.482H129.112V35.0586ZM137.764 36.839C139.067 36.839 139.611 37.3688 139.611 38.6857V42.482H137.838V38.98C137.838 38.4209 137.669 38.2516 137.11 38.2516H135.425C134.947 38.2516 134.586 38.3546 134.321 38.5606L133.99 38.8181V42.4894H132.232V36.8464H133.696L133.858 37.5601C134.218 37.2658 134.535 37.0745 134.799 36.9788C135.064 36.8905 135.469 36.8538 135.999 36.8538H137.772L137.764 36.839ZM140.641 38.6857C140.641 37.3688 141.185 36.839 142.488 36.839H146.012C147.314 36.839 147.858 37.3688 147.858 38.6857V39.1639H146.159V38.9506C146.159 38.3914 145.975 38.2149 145.416 38.2149H143.142C142.583 38.2149 142.399 38.3841 142.399 38.9506V40.3705C142.399 40.9297 142.576 41.0989 143.142 41.0989H145.416C145.975 41.0989 146.159 40.9297 146.159 40.3705V40.0983H147.858V40.6427C147.858 41.9597 147.321 42.4894 146.012 42.4894H142.488C141.185 42.4894 140.641 41.9597 140.641 40.6427V38.6931V38.6857ZM148.933 42.482V40.5324H151.015V42.482H148.933Z" fill="#005399"/>
<path d="M18.3037 45.8428L16.4277 48.1898V49.5509H15.4933V48.1898L13.6172 45.8428H14.7502L15.9936 47.4688L17.2296 45.8428H18.3111H18.3037ZM18.7525 49.5582C18.0977 49.5582 17.8329 49.2934 17.8329 48.6386V47.6601C17.8329 47.0053 18.1051 46.7404 18.7525 46.7404H20.6507C21.3055 46.7404 21.5704 47.0053 21.5704 47.6601V48.6386C21.5704 49.2934 21.2981 49.5582 20.6507 49.5582H18.7525ZM20.3196 48.8667C20.5992 48.8667 20.6875 48.7784 20.6875 48.4988V47.7852C20.6875 47.5056 20.5992 47.4173 20.3196 47.4173H19.0763C18.7967 47.4173 18.7084 47.5056 18.7084 47.7852V48.4988C18.7084 48.7784 18.7967 48.8667 19.0763 48.8667H20.3196ZM25.7787 46.7331V49.5582H25.0503L24.9694 49.2051C24.7855 49.3522 24.631 49.4479 24.4985 49.492C24.3661 49.5362 24.1675 49.5582 23.9026 49.5582H23.0197C22.3649 49.5582 22.1001 49.2934 22.1001 48.6386V46.7404H22.983V48.4914C22.983 48.771 23.0712 48.8593 23.3508 48.8593H24.1969C24.4323 48.8593 24.6163 48.8078 24.7487 48.7048L24.9106 48.5797V46.7478H25.7934L25.7787 46.7331ZM28.8467 46.7331V47.5203H27.9564C27.721 47.5203 27.5371 47.5718 27.4047 47.6748L27.2428 47.7999V49.5509H26.3599V46.7257H27L27.0957 47.123L27.1177 47.1083C27.3017 46.9464 27.4709 46.8434 27.6033 46.7919C27.7357 46.7478 27.9417 46.7257 28.214 46.7257H28.854L28.8467 46.7331ZM33.6215 46.7331C34.2763 46.7331 34.5412 46.9979 34.5412 47.6527V48.6312C34.5412 49.286 34.269 49.5509 33.6215 49.5509H32.6798C32.4296 49.5509 32.2384 49.5288 32.1059 49.492C31.9735 49.4552 31.8337 49.3743 31.6792 49.2492V50.397H30.7963V46.7257H31.5247L31.6056 47.0789C31.7896 46.9317 31.9441 46.8361 32.0765 46.7846C32.2089 46.7404 32.4076 46.7184 32.6724 46.7184H33.6142L33.6215 46.7331ZM33.6583 47.7852C33.6583 47.5056 33.57 47.4173 33.2904 47.4173H32.3929C32.1501 47.4173 31.9661 47.4688 31.8411 47.5644L31.6792 47.6895V48.5797L31.8411 48.7048C31.9735 48.8078 32.1574 48.852 32.3929 48.852H33.2904C33.57 48.852 33.6583 48.7637 33.6583 48.4841V47.7704V47.7852ZM37.8078 46.7331C38.4626 46.7331 38.7274 46.9979 38.7274 47.6527V49.5509H37.9917L37.9108 49.2125C37.7416 49.3596 37.5944 49.4552 37.4767 49.492C37.3516 49.5288 37.1677 49.5509 36.9102 49.5509H35.7036C35.2548 49.5509 35.0341 49.3302 35.0341 48.8814V48.5724C35.0341 48.1236 35.2548 47.9029 35.7036 47.9029H37.8446V47.7042C37.8446 47.4246 37.7563 47.3364 37.4767 47.3364H36.3143C36.0936 47.3364 36.02 47.4173 36.02 47.6306V47.7116H35.1665V47.5203C35.1665 46.9685 35.4167 46.7257 35.9611 46.7257H37.8152L37.8078 46.7331ZM37.1898 48.9844C37.3811 48.9844 37.5356 48.9329 37.6533 48.8446L37.8372 48.7048V48.3884H36.1671C35.9685 48.3884 35.9096 48.4547 35.9096 48.6459V48.7342C35.9096 48.9329 35.9685 48.9917 36.1671 48.9917H37.1824L37.1898 48.9844ZM41.7807 46.7331V47.5203H40.8905C40.655 47.5203 40.4711 47.5718 40.3387 47.6748L40.1768 47.7999V49.5509H39.294V46.7257H39.934L40.0297 47.123L40.0518 47.1083C40.2357 46.9464 40.4049 46.8434 40.5373 46.7919C40.6698 46.7478 40.8758 46.7257 41.148 46.7257H41.7807V46.7331ZM45.0252 47.4099H43.5612V48.5724C43.5612 48.7931 43.6421 48.8667 43.8554 48.8667H45.0252V49.5582H43.4802C42.9358 49.5582 42.6856 49.3155 42.6856 48.7637V47.4099H41.9352V46.7331H42.6856L42.8622 46.1003H43.5685V46.7331H45.0326V47.4099H45.0252ZM48.2109 46.7331C48.8657 46.7331 49.1306 46.9979 49.1306 47.6527V49.5509H48.2477V47.7999C48.2477 47.5203 48.1594 47.432 47.8799 47.432H47.0338C46.7983 47.432 46.6144 47.4835 46.482 47.5865L46.3201 47.7116V49.5435H45.4373V46.7184H46.1656L46.2465 47.0715C46.4305 46.9244 46.585 46.8287 46.7174 46.7772C46.8498 46.7331 47.0485 46.711 47.3133 46.711H48.1962L48.2109 46.7331ZM52.4193 46.7331C53.0741 46.7331 53.3389 46.9979 53.3389 47.6527V48.2854H50.5285V48.5209C50.5285 48.8004 50.6167 48.8887 50.8963 48.8887H52.1838C52.4046 48.8887 52.4781 48.8078 52.4781 48.5944V48.5209H53.3316V48.7637C53.3316 49.3155 53.0814 49.5582 52.537 49.5582H50.5579C49.9031 49.5582 49.6382 49.2934 49.6382 48.6386V47.6601C49.6382 47.0053 49.9105 46.7404 50.5579 46.7404H52.4119L52.4193 46.7331ZM50.5285 47.7704H52.4855V47.7189C52.4855 47.4394 52.3972 47.3511 52.1176 47.3511H50.9037C50.6241 47.3511 50.5358 47.4394 50.5358 47.7189V47.7704H50.5285ZM56.3628 46.7331V47.5203H55.4725C55.2371 47.5203 55.0532 47.5718 54.9207 47.6748L54.7589 47.7999V49.5509H53.876V46.7257H54.5161L54.6117 47.123L54.6338 47.1083C54.8177 46.9464 54.9869 46.8434 55.1194 46.7919C55.2518 46.7478 55.4578 46.7257 55.73 46.7257H56.3628V46.7331ZM58.3419 46.4682V45.8428H59.2468V46.4682H58.3419ZM58.3419 49.5582V46.7331H59.2468V49.5582H58.3419ZM62.609 46.7331C63.2638 46.7331 63.5287 46.9979 63.5287 47.6527V49.5509H62.6458V47.7999C62.6458 47.5203 62.5575 47.432 62.278 47.432H61.4319C61.1965 47.432 61.0125 47.4835 60.8801 47.5865L60.7182 47.7116V49.5435H59.8354V46.7184H60.5637L60.6447 47.0715C60.8286 46.9244 60.9831 46.8287 61.1155 46.7772C61.248 46.7331 61.4466 46.711 61.7115 46.711H62.5943L62.609 46.7331ZM68.5684 47.4099H67.1043V48.5724C67.1043 48.7931 67.1853 48.8667 67.3986 48.8667H68.5684V49.5582H67.0234C66.479 49.5582 66.2288 49.3155 66.2288 48.7637V47.4099H65.4784V46.7331H66.2288L66.4054 46.1003H67.1117V46.7331H68.5758V47.4099H68.5684ZM71.7541 46.7331C72.4089 46.7331 72.6738 46.9979 72.6738 47.6527V49.5509H71.7909V47.7999C71.7909 47.5203 71.7026 47.432 71.423 47.432H70.5769C70.3415 47.432 70.1576 47.4835 70.0251 47.5865L69.8633 47.7116V49.5435H68.9804V45.8281H69.8633V47.0494C70.0251 46.9096 70.1796 46.8214 70.3121 46.7772C70.4445 46.7404 70.6358 46.7184 70.8933 46.7184H71.7467L71.7541 46.7331ZM75.9624 46.7331C76.6172 46.7331 76.8821 46.9979 76.8821 47.6527V48.2854H74.0716V48.5209C74.0716 48.8004 74.1599 48.8887 74.4395 48.8887H75.727C75.9477 48.8887 76.0213 48.8078 76.0213 48.5944V48.5209H76.8747V48.7637C76.8747 49.3155 76.6246 49.5582 76.0802 49.5582H74.1011C73.4463 49.5582 73.1814 49.2934 73.1814 48.6386V47.6601C73.1814 47.0053 73.4536 46.7404 74.1011 46.7404H75.9551L75.9624 46.7331ZM74.0716 47.7704H76.0287V47.7189C76.0287 47.4394 75.9404 47.3511 75.6608 47.3511H74.4468C74.1673 47.3511 74.079 47.4394 74.079 47.7189V47.7704H74.0716ZM83.4963 46.7331H84.4159L83.1357 49.5582H82.378L81.576 47.7042L80.7888 49.5582H80.0163L78.7361 46.7331H79.6926L80.4504 48.5871L81.2523 46.7331H81.9365L82.7458 48.5871L83.4963 46.7331ZM87.3073 46.7331C87.9621 46.7331 88.227 46.9979 88.227 47.6527V48.2854H85.4165V48.5209C85.4165 48.8004 85.5048 48.8887 85.7844 48.8887H87.0719C87.2926 48.8887 87.3662 48.8078 87.3662 48.5944V48.5209H88.2196V48.7637C88.2196 49.3155 87.9695 49.5582 87.425 49.5582H85.4459C84.7911 49.5582 84.5263 49.2934 84.5263 48.6386V47.6601C84.5263 47.0053 84.7985 46.7404 85.4459 46.7404H87.2999L87.3073 46.7331ZM85.4165 47.7704H87.3735V47.7189C87.3735 47.4394 87.2852 47.3511 87.0057 47.3511H85.7917C85.5121 47.3511 85.4239 47.4394 85.4239 47.7189V47.7704H85.4165ZM88.7861 49.5582V45.8428H89.6837V49.5582H88.7861ZM90.3017 49.5582V45.8428H91.1993V49.5582H90.3017ZM94.5689 46.7331C95.2237 46.7331 95.4885 46.9979 95.4885 47.6527V49.5509H94.6057V47.7999C94.6057 47.5203 94.5174 47.432 94.2378 47.432H93.3917C93.1563 47.432 92.9724 47.4835 92.84 47.5865L92.6781 47.7116V49.5435H91.7952V46.7184H92.5236L92.6045 47.0715C92.7885 46.9244 92.943 46.8287 93.0754 46.7772C93.2078 46.7331 93.4065 46.711 93.6713 46.711H94.5542L94.5689 46.7331ZM98.7772 46.7331C99.432 46.7331 99.6969 46.9979 99.6969 47.6527V48.2854H96.8864V48.5209C96.8864 48.8004 96.9747 48.8887 97.2543 48.8887H98.5418C98.7625 48.8887 98.8361 48.8078 98.8361 48.5944V48.5209H99.6895V48.7637C99.6895 49.3155 99.4394 49.5582 98.895 49.5582H96.9159C96.2611 49.5582 95.9962 49.2934 95.9962 48.6386V47.6601C95.9962 47.0053 96.2684 46.7404 96.9159 46.7404H98.7699L98.7772 46.7331ZM96.8864 47.7704H98.8435V47.7189C98.8435 47.4394 98.7552 47.3511 98.4756 47.3511H97.2617C96.9821 47.3511 96.8938 47.4394 96.8938 47.7189V47.7704H96.8864ZM100.182 48.6386H101.036V48.8005C101.036 48.9255 101.08 48.9623 101.205 48.9623H102.772C102.897 48.9623 102.941 48.9182 102.941 48.8005V48.6386C102.941 48.5135 102.897 48.4841 102.772 48.4694L100.881 48.3443C100.455 48.3149 100.241 48.1089 100.241 47.7116V47.3805C100.241 46.9685 100.477 46.7404 100.881 46.7404H103.111C103.515 46.7404 103.751 46.9759 103.751 47.3879V47.6306H102.897V47.4982C102.897 47.3731 102.853 47.3364 102.728 47.3364H101.293C101.168 47.3364 101.124 47.3805 101.124 47.4982V47.5571C101.124 47.6821 101.168 47.7189 101.293 47.7336L103.184 47.8587C103.611 47.8882 103.824 48.0942 103.824 48.4988V48.9255C103.824 49.3302 103.589 49.5656 103.184 49.5656H100.823C100.418 49.5656 100.182 49.3302 100.182 48.9182V48.6459V48.6386ZM104.273 48.6386H105.127V48.8005C105.127 48.9255 105.171 48.9623 105.296 48.9623H106.863C106.988 48.9623 107.032 48.9182 107.032 48.8005V48.6386C107.032 48.5135 106.988 48.4841 106.863 48.4694L104.972 48.3443C104.545 48.3149 104.332 48.1089 104.332 47.7116V47.3805C104.332 46.9685 104.567 46.7404 104.972 46.7404H107.201C107.606 46.7404 107.841 46.9759 107.841 47.3879V47.6306H106.988V47.4982C106.988 47.3731 106.944 47.3364 106.819 47.3364H105.384C105.259 47.3364 105.215 47.3805 105.215 47.4982V47.5571C105.215 47.6821 105.259 47.7189 105.384 47.7336L107.275 47.8587C107.702 47.8882 107.915 48.0942 107.915 48.4988V48.9255C107.915 49.3302 107.68 49.5656 107.275 49.5656H104.913C104.509 49.5656 104.273 49.3302 104.273 48.9182V48.6459V48.6386ZM112.866 46.7404C113.521 46.7404 113.786 47.0053 113.786 47.6601V48.6386C113.786 49.2934 113.514 49.5582 112.866 49.5582H111.925C111.674 49.5582 111.483 49.5362 111.351 49.4994C111.218 49.4626 111.079 49.3817 110.924 49.2566V50.4043H110.041V46.7331H110.77L110.85 47.0862C111.034 46.9391 111.189 46.8434 111.321 46.7919C111.454 46.7478 111.652 46.7257 111.917 46.7257H112.859L112.866 46.7404ZM112.903 47.7925C112.903 47.5129 112.815 47.4246 112.535 47.4246H111.638C111.395 47.4246 111.211 47.4761 111.086 47.5718L110.924 47.6969V48.5871L111.086 48.7122C111.218 48.8152 111.402 48.8593 111.638 48.8593H112.535C112.815 48.8593 112.903 48.771 112.903 48.4914V47.7778V47.7925ZM116.81 46.7404V47.5276H115.92C115.684 47.5276 115.5 47.5791 115.368 47.6821L115.206 47.8072V49.5582H114.323V46.7331H114.956L115.051 47.1304L115.074 47.1156C115.257 46.9538 115.427 46.8508 115.559 46.7993C115.692 46.7551 115.898 46.7331 116.17 46.7331H116.802L116.81 46.7404ZM118.039 49.5656C117.384 49.5656 117.119 49.3007 117.119 48.6459V47.6674C117.119 47.0126 117.391 46.7478 118.039 46.7478H119.937C120.591 46.7478 120.856 47.0126 120.856 47.6674V48.6459C120.856 49.3007 120.584 49.5656 119.937 49.5656H118.039ZM119.606 48.874C119.885 48.874 119.973 48.7857 119.973 48.5062V47.7925C119.973 47.5129 119.885 47.4246 119.606 47.4246H118.362C118.083 47.4246 117.994 47.5129 117.994 47.7925V48.5062C117.994 48.7857 118.083 48.874 118.362 48.874H119.606ZM121.342 47.6674C121.342 47.0126 121.614 46.7478 122.262 46.7478H124.02C124.675 46.7478 124.94 47.0126 124.94 47.6674V47.9029H124.094V47.7999C124.094 47.5203 124.005 47.432 123.726 47.432H122.593C122.313 47.432 122.225 47.5203 122.225 47.7999V48.5135C122.225 48.7931 122.313 48.8814 122.593 48.8814H123.726C124.005 48.8814 124.094 48.7931 124.094 48.5135V48.3737H124.94V48.6459C124.94 49.3007 124.667 49.5656 124.02 49.5656H122.262C121.607 49.5656 121.342 49.3007 121.342 48.6459V47.6674ZM128.206 46.7478C128.861 46.7478 129.126 47.0126 129.126 47.6674V48.3002H126.315V48.5356C126.315 48.8152 126.404 48.9035 126.683 48.9035H127.971C128.191 48.9035 128.265 48.8225 128.265 48.6092V48.5356H129.119V48.7784C129.119 49.3302 128.868 49.573 128.324 49.573H126.345C125.69 49.573 125.425 49.3081 125.425 48.6533V47.6748C125.425 47.02 125.697 46.7551 126.345 46.7551H128.199L128.206 46.7478ZM126.315 47.7852H128.272V47.7336C128.272 47.4541 128.184 47.3658 127.905 47.3658H126.691C126.411 47.3658 126.323 47.4541 126.323 47.7336V47.7852H126.315ZM129.611 48.6533H130.465V48.8152C130.465 48.9402 130.509 48.977 130.634 48.977H132.201C132.326 48.977 132.37 48.9329 132.37 48.8152V48.6533C132.37 48.5282 132.326 48.4988 132.201 48.4841L130.31 48.359C129.884 48.3296 129.67 48.1236 129.67 47.7263V47.3952C129.67 46.9832 129.906 46.7551 130.31 46.7551H132.54C132.944 46.7551 133.18 46.9906 133.18 47.4026V47.6454H132.326V47.5129C132.326 47.3879 132.282 47.3511 132.157 47.3511H130.722C130.597 47.3511 130.553 47.3952 130.553 47.5129V47.5718C130.553 47.6969 130.597 47.7336 130.722 47.7484L132.613 47.8734C133.04 47.9029 133.253 48.1089 133.253 48.5135V48.9402C133.253 49.3449 133.018 49.5803 132.613 49.5803H130.252C129.847 49.5803 129.611 49.3449 129.611 48.9329V48.6607V48.6533ZM133.702 48.6533H134.556V48.8152C134.556 48.9402 134.6 48.977 134.725 48.977H136.292C136.417 48.977 136.461 48.9329 136.461 48.8152V48.6533C136.461 48.5282 136.417 48.4988 136.292 48.4841L134.401 48.359C133.974 48.3296 133.761 48.1236 133.761 47.7263V47.3952C133.761 46.9832 133.996 46.7551 134.401 46.7551H136.63C137.035 46.7551 137.27 46.9906 137.27 47.4026V47.6454H136.417V47.5129C136.417 47.3879 136.373 47.3511 136.248 47.3511H134.813C134.688 47.3511 134.644 47.3952 134.644 47.5129V47.5718C134.644 47.6969 134.688 47.7336 134.813 47.7484L136.704 47.8734C137.131 47.9029 137.344 48.1089 137.344 48.5135V48.9402C137.344 49.3449 137.108 49.5803 136.704 49.5803H134.342C133.938 49.5803 133.702 49.3449 133.702 48.9329V48.6607V48.6533Z" fill="#31AAE1"/>
<path d="M44.3141 18.5626C44.4906 18.2462 44.6893 18.0255 44.91 17.893C45.1307 17.7606 45.4397 17.6944 45.8444 17.6944H47.6027C48.7505 17.6944 49.3243 18.1432 49.3243 19.0334V29.6131C49.3243 29.9001 49.2508 30.1281 49.1036 30.29C48.9565 30.4519 48.7431 30.5328 48.4488 30.5328H47.4482C47.1613 30.5328 46.9406 30.4519 46.7861 30.29C46.6316 30.1281 46.558 29.9001 46.558 29.6131V20.8654C46.558 20.7403 46.5286 20.6447 46.4697 20.5932C46.4109 20.5417 46.3447 20.5049 46.2711 20.5049C46.1313 20.5049 45.9915 20.6226 45.8591 20.8654L40.7605 29.7603C40.606 30.0251 40.4515 30.2164 40.297 30.3489C40.1425 30.4739 39.9218 30.5401 39.6422 30.5401H38.6637C38.3988 30.5401 38.1928 30.4739 38.053 30.3489C37.9059 30.2238 37.7588 30.0325 37.6116 29.7823L32.5278 20.8874C32.3733 20.6373 32.2408 20.5122 32.1158 20.5122C32.0422 20.5122 31.976 20.5343 31.9171 20.5858C31.8583 20.6373 31.8288 20.7256 31.8288 20.8507V29.5984C31.8288 29.8853 31.7552 30.1208 31.6081 30.29C31.461 30.4592 31.2476 30.5475 30.9533 30.5475H29.9674C29.6658 30.5475 29.4377 30.4592 29.2906 30.29C29.1361 30.1208 29.0625 29.8927 29.0625 29.5984V19.0408C29.0625 18.1506 29.6364 17.7018 30.7841 17.7018H32.5572C32.9618 17.7018 33.2708 17.768 33.4916 17.9078C33.7123 18.0475 33.9109 18.2756 34.0875 18.5846L38.9065 27.1779C39.0168 27.3765 39.1346 27.4795 39.2449 27.4795C39.3553 27.4795 39.4656 27.3839 39.5686 27.1926L44.3067 18.5626H44.3141ZM65.6574 19.0923C65.6574 19.6367 65.3558 19.9016 64.7525 19.9016H60.4117C59.9482 19.9016 59.7128 20.1002 59.7128 20.5049V29.6058C59.7128 29.8927 59.6392 30.1208 59.4994 30.2826C59.3523 30.4445 59.1389 30.5254 58.8446 30.5254H57.7852C57.4982 30.5254 57.2775 30.4371 57.123 30.2679C56.9685 30.0987 56.8949 29.8706 56.8949 29.5763V20.5122C56.8949 20.2989 56.8434 20.1444 56.7331 20.0414C56.6227 19.9384 56.4461 19.8869 56.196 19.8869H51.8552C51.5683 19.8869 51.3402 19.8206 51.1857 19.6882C51.0312 19.5558 50.9503 19.3498 50.9503 19.0776V18.489C50.9503 17.9445 51.2519 17.6797 51.8552 17.6797H64.7525C65.0394 17.6797 65.2675 17.7459 65.422 17.8783C65.5765 18.0108 65.6574 18.2168 65.6574 18.489V19.0776V19.0923Z" fill="#005399"/>
<path d="M120.781 18.5998C121.568 16.6795 122.017 14.5827 121.914 12.5006C121.833 11.4632 121.612 10.4406 121.23 9.4915C120.825 8.54978 120.273 7.68898 119.619 6.92383C120.185 7.76255 120.627 8.66014 120.913 9.60922C121.178 10.5657 121.267 11.5442 121.237 12.5153C121.112 14.465 120.487 16.3337 119.552 18.0406C118.625 19.7549 117.456 21.3219 116.168 22.7934C116.124 22.8375 116.087 22.8817 116.043 22.9332L116.293 23.0141C116.911 23.2054 117.397 23.6248 117.691 24.1618C117.72 24.1251 117.742 24.0883 117.772 24.0515C118.949 22.352 120.001 20.5494 120.781 18.6145V18.5998Z" fill="#31AAE1"/>
<path d="M116.483 20.9686C117.528 19.5413 118.462 18.011 119.168 16.3704C119.36 15.9731 119.485 15.5316 119.639 15.1196C119.72 14.9136 119.764 14.6856 119.823 14.4722C119.875 14.2515 119.948 14.0455 119.985 13.8248C120.169 12.9492 120.25 12.0517 120.206 11.1614C120.139 10.2712 119.948 9.3957 119.602 8.5864C119.242 7.78446 118.749 7.0561 118.175 6.41602C118.675 7.12231 119.065 7.88746 119.323 8.6894C119.558 9.4987 119.647 10.3448 119.617 11.1688C119.507 12.8315 118.933 14.4207 118.109 15.8627C117.285 17.3047 116.255 18.629 115.122 19.8577C114.452 20.6008 113.731 21.2997 112.988 21.9692L115.173 22.6534C115.629 22.109 116.071 21.5499 116.483 20.976V20.9686Z" fill="#31AAE1"/>
<path d="M111.804 21.4835C113.135 20.3505 114.408 19.1218 115.578 17.7166C116.284 16.8117 116.983 15.8847 117.535 14.7811C118.079 13.6848 118.528 12.4488 118.624 11.0583L118.653 10.5359C118.653 10.3594 118.631 10.1828 118.617 10.0062C118.602 9.82965 118.587 9.65308 118.565 9.4765L118.447 8.94678C118.403 8.77021 118.374 8.59363 118.308 8.42442L118.109 7.92413C117.991 7.58569 117.8 7.2914 117.631 6.9824C116.902 5.79053 115.909 4.92237 114.901 4.25286C113.886 3.58335 112.826 3.09042 111.767 2.70784C110.707 2.31055 109.641 2.03098 108.574 1.78819C106.44 1.33204 104.314 1.08925 102.195 0.971533C100.076 0.853817 97.9721 0.84646 95.8753 0.934747C93.7785 1.03039 91.6964 1.16282 89.6216 1.41297C88.5843 1.52333 87.5469 1.62633 86.5169 1.78819C85.4869 1.94269 84.4495 2.0604 83.4268 2.24434C79.3215 2.89913 75.2677 3.81143 71.2506 4.8488C69.2421 5.35645 67.2556 5.95974 65.2692 6.54096L62.3116 7.49741C61.3257 7.81377 60.3545 8.18163 59.376 8.52006C55.484 9.92529 51.6509 11.485 47.9208 13.2655C44.1907 15.0459 40.5636 17.0471 37.1719 19.3941C40.6666 17.209 44.3673 15.377 48.1489 13.7731C51.9379 12.1766 55.8078 10.7934 59.7292 9.5795C60.715 9.28522 61.6862 8.96885 62.6794 8.70399L65.6444 7.88734C67.6382 7.3944 69.6247 6.89411 71.6258 6.47475C75.6355 5.62867 79.6673 4.90766 83.7211 4.45151C84.7364 4.31908 85.7517 4.24551 86.767 4.1425C87.7823 4.03215 88.7976 3.97329 89.8129 3.91443C91.8435 3.75993 93.8741 3.72314 95.8974 3.72314C97.9206 3.72314 99.9365 3.82614 101.93 4.03215C103.917 4.23815 105.888 4.55451 107.765 5.04744C108.699 5.30495 109.619 5.59188 110.472 5.95974C111.333 6.31289 112.142 6.73961 112.819 7.2399C113.503 7.73284 114.048 8.3067 114.364 8.89528C114.68 9.48386 114.791 10.0798 114.717 10.7493C114.644 11.4188 114.364 12.1472 113.952 12.8755C113.547 13.6039 112.974 14.3102 112.385 15.0018C111.76 15.6787 111.083 16.3408 110.362 16.9662C109.92 17.3487 109.464 17.7093 109.001 18.0698L111.701 21.3952C111.701 21.3952 111.76 21.4467 111.789 21.4762L111.804 21.4835Z" fill="#005399"/>
<path d="M115.931 24.155L111.811 22.8675C111.407 22.7424 111.046 22.4996 110.774 22.1685L107.5 18.1367C107.272 17.8572 106.933 17.6953 106.573 17.6953H83.9494C83.6404 17.6953 83.3608 17.916 83.3314 18.225C83.2946 18.5782 83.5742 18.8725 83.92 18.8725H89.8499C90.1589 18.8725 90.4385 19.0932 90.4679 19.4022C90.5047 19.7553 90.2251 20.0496 89.8793 20.0496H83.9494C83.6404 20.0496 83.3608 20.2703 83.3314 20.5794C83.2946 20.9325 83.5742 21.2268 83.92 21.2268H91.4979C91.8069 21.2268 92.0865 21.4475 92.1159 21.7565C92.1527 22.1097 91.8731 22.4039 91.5273 22.4039H86.3037C85.9947 22.4039 85.7151 22.6247 85.6857 22.9337C85.6489 23.2868 85.9285 23.5811 86.2743 23.5811H90.3208C90.6298 23.5811 90.9093 23.8018 90.9388 24.1108C90.9756 24.464 90.696 24.7583 90.3502 24.7583H88.658C88.349 24.7583 88.0694 24.979 88.04 25.288C88.0032 25.6411 88.2828 25.9354 88.6286 25.9354H92.6751C92.9841 25.9354 93.2637 26.1561 93.2931 26.4651C93.3299 26.8183 93.0503 27.1126 92.7045 27.1126H86.3037C85.9947 27.1126 85.7151 27.3333 85.6857 27.6423C85.6489 27.9954 85.9285 28.2897 86.2743 28.2897H94.0877C94.3967 28.2897 94.6762 28.5105 94.7057 28.8195C94.7425 29.1726 94.4629 29.4669 94.1171 29.4669H89.791C89.4747 29.4743 89.2172 29.7318 89.2172 30.0555C89.2172 30.3792 89.4747 30.6367 89.791 30.6441H106.882C107.154 30.6441 107.382 30.8353 107.426 31.1002C107.647 32.4392 108.81 33.4619 110.215 33.4619C111.62 33.4619 112.782 32.4392 113.003 31.1002C113.047 30.8353 113.275 30.6441 113.548 30.6441H115.586C116.248 30.6441 116.785 30.107 116.785 29.4448V25.3027C116.785 24.7803 116.446 24.3168 115.946 24.155H115.931ZM97.5014 27.9145C95.1986 27.9145 93.3372 26.0458 93.3372 23.7503C93.3372 21.4549 95.206 19.5861 97.5014 19.5861C99.7969 19.5861 101.666 21.4549 101.666 23.7503C101.666 26.0458 99.7969 27.9145 97.5014 27.9145ZM103.74 22.5658C103.49 22.5658 103.284 22.3598 103.284 22.1097V19.2477C103.284 18.9975 103.49 18.7915 103.74 18.7915H106.301C106.44 18.7915 106.573 18.8578 106.661 18.9681L109.45 22.5584H103.74V22.5658ZM110.207 32.2921C109.302 32.2921 108.559 31.5564 108.559 30.6441C108.559 29.7318 109.295 28.996 110.207 28.996C111.12 28.996 111.855 29.7318 111.855 30.6441C111.855 31.5564 111.12 32.2921 110.207 32.2921ZM97.8472 25.1188C97.8251 24.8907 97.7957 24.6626 97.7736 24.4419C97.7295 23.971 97.678 23.5002 97.6339 23.0293C97.6265 22.9557 97.6339 22.8748 97.6044 22.8012C97.5824 22.7497 97.5235 22.6909 97.472 22.6762C97.3911 22.6541 97.3396 22.7203 97.3249 22.7939C97.266 23.044 97.2145 23.2942 97.163 23.5443C97.0968 23.846 97.0379 24.1476 96.9717 24.4493C96.9717 24.4787 96.9496 24.5081 96.9276 24.567C96.8687 24.4345 96.8246 24.3168 96.7657 24.2212C96.7289 24.1623 96.6553 24.0961 96.5965 24.0961C96.5376 24.0961 96.4493 24.1623 96.4273 24.2138C96.3537 24.4345 96.2139 24.486 95.9932 24.4787C95.6106 24.4566 95.2207 24.4713 94.8307 24.4787C94.7351 24.4787 94.6836 24.4566 94.6468 24.3683C94.3305 23.6841 94.2495 22.9925 94.61 22.3009C95.1471 21.2856 96.5891 21.0649 97.3616 21.8742C97.4058 21.9257 97.4499 21.9772 97.5014 22.0361C97.5235 22.014 97.5382 22.0067 97.5529 21.9846C98.1194 21.2489 99.2451 21.2121 99.9293 21.7565C100.349 22.0876 100.569 22.5217 100.621 23.0514C100.665 23.5149 100.555 23.9416 100.371 24.361C100.334 24.4493 100.282 24.486 100.179 24.486C99.8705 24.486 99.5688 24.486 99.2598 24.486C99.1862 24.486 99.1421 24.464 99.1053 24.3978C99.0612 24.3021 99.017 24.2065 98.9508 24.1255C98.914 24.074 98.8331 24.0299 98.7816 24.0299C98.7301 24.0299 98.6565 24.0888 98.6344 24.1403C98.5462 24.3242 98.4799 24.5081 98.3916 24.692C98.3769 24.7288 98.3254 24.773 98.296 24.773C98.0827 24.773 97.9576 24.8686 97.9061 25.0746C97.9061 25.0893 97.8914 25.1114 97.8766 25.1261C97.8693 25.1261 97.8546 25.1261 97.8472 25.1261V25.1188ZM94.8896 24.7877C95 24.9201 95.103 25.0526 95.2207 25.1776C95.8608 25.8177 96.6186 26.2959 97.3984 26.7521C97.4794 26.8036 97.5456 26.7962 97.6191 26.7521C98.0311 26.4872 98.4579 26.2371 98.8625 25.9575C99.2819 25.6706 99.6792 25.3468 100.01 24.9422C100.047 24.8907 100.084 24.8392 100.135 24.7583C99.8042 24.7583 99.5026 24.7583 99.2083 24.7583C99.0685 24.7583 98.9729 24.6994 98.8993 24.5817C98.8772 24.5375 98.8478 24.5008 98.8037 24.4345C98.7374 24.589 98.6786 24.7215 98.6271 24.8466C98.5756 24.979 98.4873 25.0599 98.3328 25.0526C98.2298 25.0452 98.1857 25.0893 98.1562 25.185C98.09 25.4057 98.0091 25.6191 97.9355 25.8324C97.9061 25.906 97.8546 25.9648 97.7736 25.9428C97.7221 25.9281 97.678 25.8618 97.6412 25.8103C97.6265 25.7883 97.6265 25.7515 97.6265 25.7147C97.6191 25.597 97.6044 25.4719 97.5971 25.3542C97.5529 24.876 97.5014 24.4051 97.4573 23.9269C97.4573 23.8828 97.4352 23.8386 97.4279 23.7871C97.3543 23.9931 97.3175 24.1918 97.2734 24.3904C97.2292 24.589 97.1998 24.7877 97.1409 24.979C97.1262 25.0378 97.0526 25.1114 96.9938 25.1261C96.9496 25.1335 96.8761 25.0599 96.8319 25.0158C96.8025 24.9863 96.7951 24.9348 96.7731 24.8981C96.7216 24.7803 96.6627 24.6626 96.5891 24.5008C96.4788 24.773 96.2728 24.7583 96.0668 24.7509C95.721 24.7509 95.3825 24.7509 95.0367 24.7509C94.9926 24.7509 94.9485 24.7509 94.9117 24.7509L94.8896 24.7877Z" fill="#31AAE1"/>
<path d="M72.4822 27.4203C71.9746 26.9568 71.7538 26.486 71.8201 26.0151C71.8863 25.5369 72.1953 25.0513 72.7324 24.5584L79.8909 18.0178C80.325 17.6205 80.737 17.5984 81.1196 17.9442L81.4948 18.2826C81.6788 18.4518 81.767 18.6358 81.7523 18.8271C81.7376 19.0184 81.6273 19.2096 81.4286 19.3936L75.0425 25.2205" fill="#005399"/>
<path d="M76.9865 20.8203C77.4942 21.2838 77.7149 21.7547 77.6487 22.2255C77.5825 22.7038 77.2735 23.1893 76.7364 23.6823L69.5778 30.2229C69.1437 30.6202 68.7317 30.6422 68.3491 30.2964L67.9739 29.958C67.79 29.7888 67.7017 29.6049 67.7164 29.4136C67.7311 29.2223 67.8415 29.031 68.0401 28.8471L74.4262 23.0201" fill="#005399"/>
<path d="M74.4262 25.2205L68.0401 19.3936C67.8341 19.2096 67.7238 19.0184 67.7164 18.8271C67.7017 18.6358 67.79 18.4518 67.9739 18.2826L68.3491 17.9442C68.7317 17.5984 69.1437 17.6205 69.5778 18.0178L76.7364 24.5584C77.2808 25.0513 77.5825 25.5369 77.6487 26.0151C77.7149 26.4933 77.4942 26.9568 76.9865 27.4203" fill="#005399"/>
<path d="M75.0503 23.0143L81.4364 28.8412C81.6424 29.0251 81.7528 29.2164 81.7601 29.4077C81.7749 29.599 81.6866 29.7829 81.5026 29.9521L81.1274 30.2906C80.7448 30.6364 80.3328 30.6143 79.8988 30.217L72.7402 23.6764C72.1957 23.1835 71.8941 22.6979 71.8279 22.2197C71.7617 21.7415 71.9824 21.278 72.49 20.8145" fill="#005399"/>
</g>
<defs>
<clipPath id="clip0_348_6536">
<rect width="151" height="49.5069" fill="white" transform="translate(0 0.890625)"/>
</clipPath>
</defs>
</svg>
