<svg width="483" height="157" viewBox="0 0 483 157" fill="none" xmlns="http://www.w3.org/2000/svg">
<g clip-path="url(#clip0_348_6610)">
<path d="M26.5928 108.356H31.6054V131.898H25.9809V116.826L17.3912 127.792H14.1907L5.60096 116.826V131.898H0V108.356H5.24795L15.9321 122.169L26.5928 108.356ZM52.8325 114.003C56.998 114.003 58.7394 115.683 58.7394 119.859V123.872H40.7599V125.342C40.7599 127.115 41.3482 127.675 43.1368 127.675H51.3735C52.7619 127.675 53.2797 127.162 53.2797 125.785V125.319H58.7394V126.859C58.7394 130.358 57.1392 131.898 53.6562 131.898H40.9952C36.8298 131.898 35.0883 130.218 35.0883 126.042V119.859C35.0883 115.683 36.8298 114.003 40.9952 114.003H52.8325ZM40.7599 120.559H53.2797V120.232C53.2797 118.459 52.6913 117.923 50.9028 117.923H43.1368C41.3482 117.923 40.7599 118.459 40.7599 120.232V120.559ZM80.1784 108.356H85.8029V131.898H81.1197L80.602 129.635C79.4724 130.568 78.4604 131.175 77.5897 131.455C76.719 131.758 75.4246 131.898 73.7302 131.898H67.7527C63.5873 131.898 61.8458 130.218 61.8458 126.042V119.859C61.8458 115.683 63.5873 114.003 67.7527 114.003H73.7302C75.3305 114.003 76.5778 114.096 77.425 114.329C78.2722 114.563 79.19 115.099 80.1784 115.916V108.356ZM75.5894 127.535C77.119 127.535 78.2722 127.232 79.0958 126.602L80.1784 125.785V120.139L79.0958 119.322C78.3192 118.692 77.1661 118.389 75.5894 118.389H69.8472C68.0587 118.389 67.4703 118.926 67.4703 120.722V125.225C67.4703 126.999 68.0587 127.535 69.8472 127.535H75.5894ZM114.608 108.356V113.466H104.371V131.898H98.3933V113.466H88.1562V108.356H114.608ZM131.505 114.003V119.019H125.81C124.28 119.019 123.127 119.346 122.28 119.999L121.221 120.816V131.922H115.596V114.026H119.667L120.279 116.546L120.421 116.453C121.597 115.403 122.656 114.773 123.55 114.469C124.398 114.166 125.716 114.026 127.457 114.026H131.528L131.505 114.003ZM150.614 114.003C154.779 114.003 156.521 115.683 156.521 119.859V131.898H151.814L151.296 129.752C150.214 130.685 149.296 131.292 148.519 131.525C147.743 131.758 146.543 131.898 144.895 131.898H137.153C134.305 131.898 132.87 130.475 132.87 127.652V125.692C132.87 122.869 134.305 121.446 137.153 121.446H150.849V120.162C150.849 118.389 150.261 117.829 148.472 117.829H141.036C139.647 117.829 139.13 118.342 139.13 119.719V120.232H133.67V119.019C133.67 115.519 135.27 113.979 138.753 113.979H150.59L150.614 114.003ZM146.684 128.305C147.908 128.305 148.896 128.002 149.673 127.442L150.849 126.532V124.525H140.165C138.918 124.525 138.541 124.922 138.541 126.135V126.695C138.541 127.932 138.918 128.305 140.165 128.305H146.684ZM177.842 114.003C182.008 114.003 183.749 115.683 183.749 119.859V131.898H178.077V120.792C178.077 119.019 177.536 118.482 175.748 118.482H170.358C168.829 118.482 167.676 118.809 166.828 119.462L165.769 120.279V131.922H160.145V114.026H164.828L165.346 116.289C166.499 115.356 167.511 114.749 168.358 114.446C169.205 114.166 170.5 114.049 172.194 114.049H177.866L177.842 114.003ZM187.044 126.042H192.503V127.092C192.503 127.862 192.786 128.142 193.586 128.142H203.588C204.411 128.142 204.67 127.862 204.67 127.092V126.089C204.67 125.319 204.388 125.109 203.588 125.015L191.468 124.199C188.715 124.035 187.373 122.682 187.373 120.162V118.086C187.373 115.496 188.903 114.026 191.468 114.026H205.753C208.341 114.026 209.848 115.543 209.848 118.132V119.672H204.388V118.832C204.388 118.062 204.105 117.783 203.305 117.783H194.104C193.28 117.783 193.021 118.062 193.021 118.832V119.206C193.021 120.022 193.304 120.209 194.104 120.326L206.223 121.142C208.977 121.306 210.318 122.659 210.318 125.179V127.862C210.318 130.452 208.789 131.922 206.223 131.922H191.115C188.526 131.922 187.02 130.405 187.02 127.815V126.065L187.044 126.042ZM229.992 127.115H248.513V131.898H223.991V108.356H248.184V113.139H229.992V117.619H246.819V121.982H229.992V127.139V127.115ZM249.407 131.898L258.609 122.776L249.76 114.003H257.385L262.821 119.719L268.258 114.003H275.529L266.704 122.776L275.859 131.898H268.234L262.492 125.809L256.726 131.898H249.431H249.407ZM295.697 114.003C299.863 114.003 301.604 115.683 301.604 119.859V126.042C301.604 130.218 299.863 131.898 295.697 131.898H289.696C288.096 131.898 286.872 131.758 286.025 131.525C285.178 131.292 284.26 130.778 283.272 129.985V137.288H277.647V114.003H282.331L282.848 116.266C284.001 115.333 285.013 114.726 285.861 114.423C286.708 114.143 288.002 114.026 289.696 114.026H295.697V114.003ZM295.933 120.699C295.933 118.926 295.392 118.366 293.579 118.366H287.837C286.284 118.366 285.084 118.669 284.307 119.299L283.248 120.116V125.762L284.307 126.579C285.155 127.209 286.308 127.512 287.837 127.512H293.579C295.368 127.512 295.933 126.975 295.933 125.202V120.699ZM320.949 114.003V119.019H315.254C313.724 119.019 312.571 119.346 311.724 119.999L310.665 120.816V131.922H305.04V114.026H309.112L309.723 116.546L309.865 116.453C311.041 115.403 312.1 114.773 312.995 114.469C313.842 114.166 315.16 114.026 316.901 114.026H320.972L320.949 114.003ZM340.67 114.003C344.835 114.003 346.577 115.683 346.577 119.859V123.872H328.597V125.342C328.597 127.115 329.186 127.675 330.974 127.675H339.211C340.599 127.675 341.117 127.162 341.117 125.785V125.319H346.577V126.859C346.577 130.358 344.976 131.898 341.494 131.898H328.833C324.667 131.898 322.926 130.218 322.926 126.042V119.859C322.926 115.683 324.667 114.003 328.833 114.003H340.67ZM328.597 120.559H341.117V120.232C341.117 118.459 340.529 117.923 338.74 117.923H330.974C329.186 117.923 328.597 118.459 328.597 120.232V120.559ZM349.707 126.042H355.166V127.092C355.166 127.862 355.449 128.142 356.249 128.142H366.251C367.074 128.142 367.333 127.862 367.333 127.092V126.089C367.333 125.319 367.051 125.109 366.251 125.015L354.131 124.199C351.378 124.035 350.036 122.682 350.036 120.162V118.086C350.036 115.496 351.566 114.026 354.131 114.026H368.416C371.004 114.026 372.511 115.543 372.511 118.132V119.672H367.051V118.832C367.051 118.062 366.768 117.783 365.968 117.783H356.767C355.943 117.783 355.684 118.062 355.684 118.832V119.206C355.684 120.022 355.967 120.209 356.767 120.326L368.886 121.142C371.64 121.306 372.981 122.659 372.981 125.179V127.862C372.981 130.452 371.452 131.922 368.886 131.922H353.778C351.189 131.922 349.683 130.405 349.683 127.815V126.065L349.707 126.042ZM375.876 126.042H381.336V127.092C381.336 127.862 381.618 128.142 382.418 128.142H392.42C393.244 128.142 393.502 127.862 393.502 127.092V126.089C393.502 125.319 393.22 125.109 392.42 125.015L380.3 124.199C377.547 124.035 376.205 122.682 376.205 120.162V118.086C376.205 115.496 377.735 114.026 380.3 114.026H394.585C397.174 114.026 398.68 115.543 398.68 118.132V119.672H393.22V118.832C393.22 118.062 392.938 117.783 392.137 117.783H382.936C382.112 117.783 381.853 118.062 381.853 118.832V119.206C381.853 120.022 382.136 120.209 382.936 120.326L395.056 121.142C397.809 121.306 399.15 122.659 399.15 125.179V127.862C399.15 130.452 397.621 131.922 395.056 131.922H379.947C377.358 131.922 375.852 130.405 375.852 127.815V126.065L375.876 126.042ZM412.988 108.356H419.036V131.898H412.988V108.356ZM440.663 114.003C444.829 114.003 446.57 115.683 446.57 119.859V131.898H440.899V120.792C440.899 119.019 440.357 118.482 438.569 118.482H433.18C431.65 118.482 430.497 118.809 429.65 119.462L428.591 120.279V131.922H422.966V114.026H427.649L428.167 116.289C429.32 115.356 430.332 114.749 431.179 114.446C432.027 114.166 433.321 114.049 435.015 114.049H440.687L440.663 114.003ZM449.865 119.859C449.865 115.683 451.606 114.003 455.772 114.003H467.044C471.21 114.003 472.951 115.683 472.951 119.859V121.376H467.515V120.699C467.515 118.926 466.927 118.366 465.138 118.366H457.866C456.078 118.366 455.489 118.902 455.489 120.699V125.202C455.489 126.975 456.054 127.512 457.866 127.512H465.138C466.927 127.512 467.515 126.975 467.515 125.202V124.339H472.951V126.065C472.951 130.242 471.233 131.922 467.044 131.922H455.772C451.606 131.922 449.865 130.242 449.865 126.065V119.882V119.859ZM476.387 131.898V125.715H483.047V131.898H476.387Z" fill="white"/>
<path d="M58.5477 142.556L52.5467 149.999V154.316H49.5579V149.999L43.5569 142.556H47.181L51.1582 147.713L55.1118 142.556H58.5712H58.5477ZM59.9832 154.339C57.8887 154.339 57.0415 153.499 57.0415 151.423V148.319C57.0415 146.243 57.9123 145.403 59.9832 145.403H66.0548C68.1493 145.403 68.9965 146.243 68.9965 148.319V151.423C68.9965 153.499 68.1258 154.339 66.0548 154.339H59.9832ZM64.9958 152.146C65.8901 152.146 66.1725 151.866 66.1725 150.979V148.716C66.1725 147.829 65.8901 147.549 64.9958 147.549H61.0187C60.1244 147.549 59.842 147.829 59.842 148.716V150.979C59.842 151.866 60.1244 152.146 61.0187 152.146H64.9958ZM82.4576 145.38V154.339H80.1278L79.869 153.219C79.2806 153.686 78.7864 153.989 78.3628 154.129C77.9392 154.269 77.3038 154.339 76.4566 154.339H73.6326C71.5381 154.339 70.6909 153.499 70.6909 151.423V145.403H73.5149V150.956C73.5149 151.842 73.7973 152.122 74.6916 152.122H77.3979C78.151 152.122 78.7394 151.959 79.163 151.633L79.6807 151.236V145.426H82.5047L82.4576 145.38ZM92.2711 145.38V147.876H89.4235C88.6705 147.876 88.0821 148.039 87.6585 148.366L87.1408 148.763V154.316H84.3168V145.356H86.3642L86.6701 146.616L86.7407 146.57C87.3291 146.056 87.8703 145.73 88.2939 145.566C88.7175 145.426 89.3765 145.356 90.2472 145.356H92.2946L92.2711 145.38ZM107.544 145.38C109.639 145.38 110.486 146.22 110.486 148.296V151.399C110.486 153.476 109.615 154.316 107.544 154.316H104.532C103.732 154.316 103.12 154.246 102.696 154.129C102.273 154.012 101.826 153.756 101.331 153.359V156.999H98.5074V145.356H100.837L101.096 146.476C101.684 146.01 102.179 145.706 102.602 145.543C103.026 145.403 103.661 145.333 104.508 145.333H107.521L107.544 145.38ZM107.662 148.716C107.662 147.829 107.38 147.549 106.485 147.549H103.614C102.838 147.549 102.249 147.713 101.849 148.016L101.331 148.413V151.236L101.849 151.633C102.273 151.959 102.861 152.099 103.614 152.099H106.485C107.38 152.099 107.662 151.819 107.662 150.933V148.669V148.716ZM120.935 145.38C123.029 145.38 123.876 146.22 123.876 148.296V154.316H121.523L121.264 153.242C120.723 153.709 120.252 154.012 119.876 154.129C119.476 154.246 118.887 154.316 118.064 154.316H114.204C112.769 154.316 112.063 153.616 112.063 152.192V151.213C112.063 149.789 112.769 149.089 114.204 149.089H121.052V148.459C121.052 147.573 120.77 147.293 119.876 147.293H116.158C115.451 147.293 115.216 147.549 115.216 148.226V148.483H112.486V147.876C112.486 146.126 113.286 145.356 115.028 145.356H120.958L120.935 145.38ZM118.958 152.519C119.57 152.519 120.064 152.356 120.441 152.076L121.029 151.633V150.629H115.687C115.051 150.629 114.863 150.839 114.863 151.446V151.726C114.863 152.356 115.051 152.542 115.687 152.542H118.934L118.958 152.519ZM133.643 145.38V147.876H130.795C130.042 147.876 129.454 148.039 129.03 148.366L128.513 148.763V154.316H125.689V145.356H127.736L128.042 146.616L128.112 146.57C128.701 146.056 129.242 145.73 129.666 145.566C130.089 145.426 130.748 145.356 131.619 145.356H133.643V145.38ZM144.021 147.526H139.338V151.213C139.338 151.912 139.597 152.146 140.279 152.146H144.021V154.339H139.079C137.338 154.339 136.537 153.569 136.537 151.819V147.526H134.137V145.38H136.537L137.102 143.373H139.361V145.38H144.045V147.526H144.021ZM154.211 145.38C156.306 145.38 157.153 146.22 157.153 148.296V154.316H154.329V148.763C154.329 147.876 154.046 147.596 153.152 147.596H150.446C149.693 147.596 149.104 147.759 148.681 148.086L148.163 148.483V154.292H145.339V145.333H147.669L147.928 146.453C148.516 145.986 149.01 145.683 149.434 145.52C149.857 145.38 150.493 145.31 151.34 145.31H154.164L154.211 145.38ZM167.672 145.38C169.767 145.38 170.614 146.22 170.614 148.296V150.303H161.624V151.049C161.624 151.936 161.906 152.216 162.801 152.216H166.919C167.625 152.216 167.86 151.959 167.86 151.283V151.049H170.59V151.819C170.59 153.569 169.79 154.339 168.049 154.339H161.718C159.624 154.339 158.777 153.499 158.777 151.423V148.319C158.777 146.243 159.647 145.403 161.718 145.403H167.649L167.672 145.38ZM161.624 148.669H167.884V148.506C167.884 147.619 167.602 147.339 166.707 147.339H162.824C161.93 147.339 161.648 147.619 161.648 148.506V148.669H161.624ZM180.286 145.38V147.876H177.439C176.685 147.876 176.097 148.039 175.674 148.366L175.156 148.763V154.316H172.332V145.356H174.379L174.685 146.616L174.756 146.57C175.344 146.056 175.885 145.73 176.309 145.566C176.733 145.426 177.391 145.356 178.262 145.356H180.286V145.38ZM186.617 144.54V142.556H189.511V144.54H186.617ZM186.617 154.339V145.38H189.511V154.339H186.617ZM200.266 145.38C202.36 145.38 203.208 146.22 203.208 148.296V154.316H200.384V148.763C200.384 147.876 200.101 147.596 199.207 147.596H196.501C195.748 147.596 195.159 147.759 194.736 148.086L194.218 148.483V154.292H191.394V145.333H193.724L193.983 146.453C194.571 145.986 195.065 145.683 195.489 145.52C195.912 145.38 196.548 145.31 197.395 145.31H200.219L200.266 145.38ZM219.328 147.526H214.645V151.213C214.645 151.912 214.904 152.146 215.586 152.146H219.328V154.339H214.386C212.645 154.339 211.844 153.569 211.844 151.819V147.526H209.444V145.38H211.844L212.409 143.373H214.668V145.38H219.352V147.526H219.328ZM229.518 145.38C231.612 145.38 232.46 146.22 232.46 148.296V154.316H229.636V148.763C229.636 147.876 229.353 147.596 228.459 147.596H225.753C225 147.596 224.411 147.759 223.988 148.086L223.47 148.483V154.292H220.646V142.51H223.47V146.383C223.988 145.94 224.482 145.66 224.905 145.52C225.329 145.403 225.941 145.333 226.765 145.333H229.494L229.518 145.38ZM242.979 145.38C245.074 145.38 245.921 146.22 245.921 148.296V150.303H236.931V151.049C236.931 151.936 237.213 152.216 238.108 152.216H242.226C242.932 152.216 243.167 151.959 243.167 151.283V151.049H245.897V151.819C245.897 153.569 245.097 154.339 243.356 154.339H237.025C234.931 154.339 234.083 153.499 234.083 151.423V148.319C234.083 146.243 234.954 145.403 237.025 145.403H242.956L242.979 145.38ZM236.931 148.669H243.191V148.506C243.191 147.619 242.909 147.339 242.014 147.339H238.131C237.237 147.339 236.955 147.619 236.955 148.506V148.669H236.931ZM267.077 145.38H270.019L265.924 154.339H263.5L260.935 148.459L258.417 154.339H255.946L251.851 145.38H254.911L257.335 151.259L259.9 145.38H262.088L264.677 151.259L267.077 145.38ZM279.268 145.38C281.362 145.38 282.209 146.22 282.209 148.296V150.303H273.22V151.049C273.22 151.936 273.502 152.216 274.396 152.216H278.515C279.221 152.216 279.456 151.959 279.456 151.283V151.049H282.186V151.819C282.186 153.569 281.386 154.339 279.644 154.339H273.314C271.219 154.339 270.372 153.499 270.372 151.423V148.319C270.372 146.243 271.243 145.403 273.314 145.403H279.244L279.268 145.38ZM273.22 148.669H279.479V148.506C279.479 147.619 279.197 147.339 278.303 147.339H274.42C273.526 147.339 273.243 147.619 273.243 148.506V148.669H273.22ZM283.998 154.339V142.556H286.869V154.339H283.998ZM288.846 154.339V142.556H291.717V154.339H288.846ZM302.495 145.38C304.59 145.38 305.437 146.22 305.437 148.296V154.316H302.613V148.763C302.613 147.876 302.33 147.596 301.436 147.596H298.73C297.977 147.596 297.388 147.759 296.965 148.086L296.447 148.483V154.292H293.623V145.333H295.953L296.212 146.453C296.8 145.986 297.294 145.683 297.718 145.52C298.141 145.38 298.777 145.31 299.624 145.31H302.448L302.495 145.38ZM315.956 145.38C318.051 145.38 318.898 146.22 318.898 148.296V150.303H309.908V151.049C309.908 151.936 310.191 152.216 311.085 152.216H315.203C315.909 152.216 316.145 151.959 316.145 151.283V151.049H318.874V151.819C318.874 153.569 318.074 154.339 316.333 154.339H310.002C307.908 154.339 307.061 153.499 307.061 151.423V148.319C307.061 146.243 307.931 145.403 310.002 145.403H315.933L315.956 145.38ZM309.908 148.669H316.168V148.506C316.168 147.619 315.886 147.339 314.991 147.339H311.108C310.214 147.339 309.932 147.619 309.932 148.506V148.669H309.908ZM320.451 151.423H323.181V151.936C323.181 152.332 323.322 152.449 323.722 152.449H328.735C329.135 152.449 329.276 152.309 329.276 151.936V151.423C329.276 151.026 329.135 150.933 328.735 150.886L322.687 150.489C321.322 150.396 320.639 149.743 320.639 148.483V147.433C320.639 146.126 321.392 145.403 322.687 145.403H329.817C331.112 145.403 331.865 146.15 331.865 147.456V148.226H329.135V147.806C329.135 147.409 328.994 147.293 328.594 147.293H324.005C323.605 147.293 323.463 147.433 323.463 147.806V147.993C323.463 148.389 323.605 148.506 324.005 148.553L330.053 148.949C331.418 149.043 332.1 149.696 332.1 150.979V152.332C332.1 153.616 331.347 154.362 330.053 154.362H322.499C321.204 154.362 320.451 153.616 320.451 152.309V151.446V151.423ZM333.536 151.423H336.266V151.936C336.266 152.332 336.407 152.449 336.807 152.449H341.82C342.22 152.449 342.361 152.309 342.361 151.936V151.423C342.361 151.026 342.22 150.933 341.82 150.886L335.771 150.489C334.406 150.396 333.724 149.743 333.724 148.483V147.433C333.724 146.126 334.477 145.403 335.771 145.403H342.902C344.196 145.403 344.949 146.15 344.949 147.456V148.226H342.22V147.806C342.22 147.409 342.078 147.293 341.678 147.293H337.089C336.689 147.293 336.548 147.433 336.548 147.806V147.993C336.548 148.389 336.689 148.506 337.089 148.553L343.137 148.949C344.502 149.043 345.185 149.696 345.185 150.979V152.332C345.185 153.616 344.432 154.362 343.137 154.362H335.583C334.289 154.362 333.536 153.616 333.536 152.309V151.446V151.423ZM361.023 145.403C363.117 145.403 363.964 146.243 363.964 148.319V151.423C363.964 153.499 363.094 154.339 361.023 154.339H358.011C357.21 154.339 356.599 154.269 356.175 154.152C355.751 154.036 355.304 153.779 354.81 153.382V157.022H351.986V145.38H354.316L354.575 146.5C355.163 146.033 355.657 145.73 356.081 145.566C356.504 145.426 357.14 145.356 357.987 145.356H360.999L361.023 145.403ZM361.141 148.739C361.141 147.853 360.858 147.573 359.964 147.573H357.093C356.316 147.573 355.728 147.736 355.328 148.039L354.81 148.436V151.259L355.328 151.656C355.751 151.982 356.34 152.122 357.093 152.122H359.964C360.858 152.122 361.141 151.842 361.141 150.956V148.693V148.739ZM373.637 145.403V147.899H370.789C370.036 147.899 369.448 148.063 369.024 148.389L368.506 148.786V154.339H365.682V145.38H367.706L368.012 146.639L368.083 146.593C368.671 146.08 369.212 145.753 369.636 145.59C370.06 145.45 370.719 145.38 371.589 145.38H373.613L373.637 145.403ZM377.567 154.362C375.472 154.362 374.625 153.522 374.625 151.446V148.343C374.625 146.266 375.496 145.426 377.567 145.426H383.638C385.733 145.426 386.58 146.266 386.58 148.343V151.446C386.58 153.522 385.709 154.362 383.638 154.362H377.567ZM382.579 152.169C383.474 152.169 383.756 151.889 383.756 151.003V148.739C383.756 147.853 383.474 147.573 382.579 147.573H378.602C377.708 147.573 377.426 147.853 377.426 148.739V151.003C377.426 151.889 377.708 152.169 378.602 152.169H382.579ZM388.133 148.343C388.133 146.266 389.004 145.426 391.075 145.426H396.699C398.794 145.426 399.641 146.266 399.641 148.343V149.089H396.935V148.763C396.935 147.876 396.652 147.596 395.758 147.596H392.134C391.24 147.596 390.957 147.876 390.957 148.763V151.026C390.957 151.913 391.24 152.192 392.134 152.192H395.758C396.652 152.192 396.935 151.913 396.935 151.026V150.583H399.641V151.446C399.641 153.522 398.77 154.362 396.699 154.362H391.075C388.98 154.362 388.133 153.522 388.133 151.446V148.343ZM410.09 145.426C412.184 145.426 413.032 146.266 413.032 148.343V150.349H404.042V151.096C404.042 151.982 404.324 152.262 405.219 152.262H409.337C410.043 152.262 410.278 152.006 410.278 151.329V151.096H413.008V151.866C413.008 153.616 412.208 154.386 410.467 154.386H404.136C402.042 154.386 401.194 153.546 401.194 151.469V148.366C401.194 146.29 402.065 145.45 404.136 145.45H410.066L410.09 145.426ZM404.042 148.716H410.302V148.553C410.302 147.666 410.019 147.386 409.125 147.386H405.242C404.348 147.386 404.065 147.666 404.065 148.553V148.716H404.042ZM414.585 151.469H417.315V151.982C417.315 152.379 417.456 152.496 417.856 152.496H422.869C423.269 152.496 423.41 152.356 423.41 151.982V151.469C423.41 151.073 423.269 150.979 422.869 150.933L416.821 150.536C415.456 150.443 414.773 149.789 414.773 148.529V147.479C414.773 146.173 415.526 145.45 416.821 145.45H423.951C425.246 145.45 425.999 146.196 425.999 147.503V148.273H423.269V147.853C423.269 147.456 423.128 147.339 422.727 147.339H418.138C417.738 147.339 417.597 147.479 417.597 147.853V148.039C417.597 148.436 417.738 148.553 418.138 148.599L424.187 148.996C425.551 149.089 426.234 149.743 426.234 151.026V152.379C426.234 153.662 425.481 154.409 424.187 154.409H416.632C415.338 154.409 414.585 153.662 414.585 152.356V151.493V151.469ZM427.669 151.469H430.399V151.982C430.399 152.379 430.541 152.496 430.941 152.496H435.953C436.353 152.496 436.494 152.356 436.494 151.982V151.469C436.494 151.073 436.353 150.979 435.953 150.933L429.905 150.536C428.54 150.443 427.858 149.789 427.858 148.529V147.479C427.858 146.173 428.611 145.45 429.905 145.45H437.036C438.33 145.45 439.083 146.196 439.083 147.503V148.273H436.353V147.853C436.353 147.456 436.212 147.339 435.812 147.339H431.223C430.823 147.339 430.682 147.479 430.682 147.853V148.039C430.682 148.436 430.823 148.553 431.223 148.599L437.271 148.996C438.636 149.089 439.318 149.743 439.318 151.026V152.379C439.318 153.662 438.565 154.409 437.271 154.409H429.717C428.423 154.409 427.669 153.662 427.669 152.356V151.493V151.469Z" fill="white"/>
<path d="M141.746 56.043C142.311 55.0397 142.946 54.3398 143.652 53.9198C144.358 53.4998 145.347 53.2898 146.641 53.2898H152.266C155.937 53.2898 157.772 54.7131 157.772 57.5362V91.0874C157.772 91.9974 157.537 92.7206 157.066 93.2339C156.596 93.7472 155.913 94.0039 154.972 94.0039H151.771C150.854 94.0039 150.148 93.7472 149.653 93.2339C149.159 92.7206 148.924 91.9974 148.924 91.0874V63.3459C148.924 62.9492 148.83 62.6459 148.642 62.4826C148.453 62.3193 148.241 62.2026 148.006 62.2026C147.559 62.2026 147.112 62.5759 146.688 63.3459L130.38 91.5541C129.885 92.394 129.391 93.0006 128.897 93.4206C128.403 93.8172 127.697 94.0272 126.802 94.0272H123.673C122.825 94.0272 122.166 93.8172 121.719 93.4206C121.249 93.024 120.778 92.4173 120.307 91.6241L104.046 63.4159C103.551 62.6226 103.128 62.2259 102.728 62.2259C102.492 62.2259 102.281 62.2959 102.092 62.4592C101.904 62.6226 101.81 62.9025 101.81 63.2992V91.0408C101.81 91.9507 101.575 92.6973 101.104 93.2339C100.633 93.7706 99.9509 94.0506 99.0095 94.0506H95.856C94.8912 94.0506 94.1616 93.7706 93.691 93.2339C93.1968 92.6973 92.9614 91.974 92.9614 91.0408V57.5596C92.9614 54.7364 94.797 53.3132 98.4682 53.3132H104.14C105.434 53.3132 106.423 53.5231 107.129 53.9665C107.835 54.4098 108.47 55.133 109.035 56.113L124.449 83.3646C124.802 83.9945 125.179 84.3212 125.532 84.3212C125.885 84.3212 126.238 84.0179 126.567 83.4112L141.723 56.043H141.746ZM210.017 57.7229C210.017 59.4494 209.052 60.2894 207.122 60.2894H193.237C191.755 60.2894 191.002 60.9193 191.002 62.2026V91.0641C191.002 91.974 190.766 92.6973 190.319 93.2106C189.849 93.7239 189.166 93.9806 188.225 93.9806H184.836C183.918 93.9806 183.212 93.7006 182.718 93.164C182.224 92.6273 181.988 91.904 181.988 90.9708V62.2259C181.988 61.5493 181.824 61.0593 181.471 60.7327C181.118 60.406 180.553 60.2427 179.753 60.2427H165.868C164.95 60.2427 164.221 60.0327 163.726 59.6128C163.232 59.1928 162.973 58.5395 162.973 57.6762V55.8097C162.973 54.0831 163.938 53.2432 165.868 53.2432H207.122C208.04 53.2432 208.769 53.4532 209.264 53.8731C209.758 54.2931 210.017 54.9464 210.017 55.8097V57.6762V57.7229Z" fill="white"/>
<path d="M386.339 56.1605C388.858 50.0708 390.293 43.4213 389.964 36.8184C389.705 33.5286 388.999 30.2854 387.775 27.2756C386.481 24.2892 384.716 21.5593 382.621 19.1328C384.433 21.7926 385.845 24.6391 386.763 27.6489C387.61 30.6821 387.893 33.7852 387.799 36.865C387.399 43.048 385.398 48.9742 382.409 54.3872C379.444 59.8236 375.702 64.7932 371.584 69.4596C371.442 69.5996 371.325 69.7396 371.184 69.9029L371.984 70.1596C373.961 70.7662 375.514 72.0961 376.455 73.7993C376.549 73.6827 376.62 73.566 376.714 73.4493C380.48 68.0597 383.845 62.3434 386.339 56.2071V56.1605Z" fill="white"/>
<path d="M372.591 63.6729C375.933 59.1465 378.922 54.2935 381.181 49.0905C381.793 47.8305 382.193 46.4306 382.687 45.124C382.946 44.4707 383.087 43.7475 383.276 43.0708C383.44 42.3709 383.676 41.7176 383.793 41.0176C384.382 38.2411 384.641 35.3947 384.499 32.5715C384.288 29.7483 383.676 26.9719 382.57 24.4054C381.416 21.8622 379.84 19.5523 378.004 17.5225C379.604 19.7623 380.852 22.1888 381.675 24.732C382.428 27.2985 382.711 29.9817 382.617 32.5948C382.264 37.8678 380.428 42.9075 377.792 47.4806C375.156 52.0536 371.862 56.2533 368.237 60.1497C366.096 62.5063 363.79 64.7228 361.413 66.846L368.402 69.0159C369.861 67.2893 371.273 65.5161 372.591 63.6962V63.6729Z" fill="white"/>
<path d="M357.624 65.3055C361.883 61.7124 365.955 57.816 369.696 53.3596C371.956 50.4898 374.191 47.55 375.956 44.0502C377.698 40.5738 379.133 36.654 379.439 32.2443L379.533 30.5877C379.533 30.0278 379.463 29.4678 379.416 28.9078C379.369 28.3479 379.322 27.7879 379.251 27.2279L378.874 25.548C378.733 24.9881 378.639 24.4281 378.427 23.8915L377.792 22.3049C377.415 21.2317 376.803 20.2984 376.262 19.3184C373.932 15.5387 370.755 12.7855 367.531 10.6623C364.284 8.53913 360.895 6.9759 357.506 5.76264C354.117 4.50272 350.705 3.61611 347.293 2.84616C340.468 1.39959 333.667 0.629638 326.889 0.256329C320.111 -0.116981 313.381 -0.140313 306.674 0.13967C299.967 0.442984 293.307 0.862957 286.67 1.65624C283.352 2.00622 280.034 2.33286 276.739 2.84616C273.445 3.33613 270.126 3.70944 266.855 4.29274C253.724 6.36927 240.757 9.26242 227.907 12.5522C221.483 14.1621 215.129 16.0753 208.775 17.9185L199.314 20.9517C196.161 21.9549 193.054 23.1215 189.925 24.1948C177.475 28.6512 165.214 33.5975 153.283 39.2438C141.352 44.8901 129.75 51.2364 118.901 58.6793C130.079 51.7497 141.916 45.9401 154.013 40.8537C166.132 35.7907 178.511 31.4043 191.054 27.5546C194.208 26.6213 197.314 25.618 200.491 24.7781L209.975 22.1883C216.353 20.625 222.707 19.0385 229.108 17.7085C241.933 15.0254 254.83 12.7389 267.797 11.2923C271.044 10.8723 274.292 10.639 277.539 10.3124C280.787 9.96238 284.035 9.77572 287.282 9.58907C293.778 9.0991 300.273 8.98244 306.744 8.98244C313.216 8.98244 319.664 9.30908 326.042 9.96238C332.396 10.6157 338.703 11.6189 344.704 13.1822C347.693 13.9988 350.634 14.9087 353.364 16.0753C356.118 17.1952 358.706 18.5485 360.871 20.1351C363.06 21.6983 364.801 23.5182 365.813 25.3847C366.825 27.2513 367.178 29.1412 366.943 31.2644C366.708 33.3875 365.813 35.6974 364.495 38.0073C363.201 40.3171 361.366 42.557 359.483 44.7502C357.482 46.8967 355.317 48.9966 353.011 50.9798C351.599 52.193 350.14 53.3363 348.657 54.4795L357.294 65.0255C357.294 65.0255 357.482 65.1889 357.577 65.2822L357.624 65.3055Z" fill="white"/>
<path d="M370.827 73.7783L357.648 69.6953C356.354 69.2986 355.2 68.5287 354.33 67.4787L343.857 54.6929C343.128 53.8063 342.045 53.293 340.892 53.293H268.527C267.538 53.293 266.644 53.9929 266.55 54.9729C266.432 56.0928 267.327 57.0261 268.433 57.0261H287.401C288.389 57.0261 289.283 57.726 289.377 58.706C289.495 59.8259 288.601 60.7592 287.495 60.7592H268.527C267.538 60.7592 266.644 61.4591 266.55 62.4391C266.432 63.559 267.327 64.4923 268.433 64.4923H292.672C293.66 64.4923 294.555 65.1922 294.649 66.1721C294.767 67.2921 293.872 68.2253 292.766 68.2253H276.057C275.069 68.2253 274.175 68.9253 274.081 69.9052C273.963 71.0252 274.857 71.9584 275.963 71.9584H288.907C289.895 71.9584 290.789 72.6584 290.884 73.6383C291.001 74.7583 290.107 75.6915 289.001 75.6915H283.588C282.6 75.6915 281.706 76.3915 281.611 77.3714C281.494 78.4914 282.388 79.4246 283.494 79.4246H296.437C297.426 79.4246 298.32 80.1246 298.414 81.1045C298.532 82.2245 297.638 83.1577 296.532 83.1577H276.057C275.069 83.1577 274.175 83.8577 274.081 84.8376C273.963 85.9576 274.857 86.8908 275.963 86.8908H300.956C301.944 86.8908 302.839 87.5908 302.933 88.5707C303.05 89.6906 302.156 90.6239 301.05 90.6239H287.212C286.2 90.6473 285.377 91.4639 285.377 92.4905C285.377 93.5171 286.2 94.3337 287.212 94.357H341.88C342.751 94.357 343.481 94.9636 343.622 95.8036C344.328 100.05 348.046 103.293 352.541 103.293C357.036 103.293 360.754 100.05 361.46 95.8036C361.601 94.9636 362.331 94.357 363.202 94.357H369.721C371.839 94.357 373.556 92.6538 373.556 90.5539V77.4181C373.556 75.7615 372.474 74.2916 370.874 73.7783H370.827ZM311.875 85.7009C304.509 85.7009 298.555 79.7746 298.555 72.4951C298.555 65.2155 304.533 59.2893 311.875 59.2893C319.218 59.2893 325.195 65.2155 325.195 72.4951C325.195 79.7746 319.218 85.7009 311.875 85.7009ZM331.832 68.7386C331.032 68.7386 330.373 68.0854 330.373 67.2921V58.216C330.373 57.4227 331.032 56.7694 331.832 56.7694H340.021C340.468 56.7694 340.892 56.9794 341.174 57.3294L350.094 68.7153H331.832V68.7386ZM352.518 99.5833C349.623 99.5833 347.246 97.2502 347.246 94.357C347.246 91.4639 349.599 89.1307 352.518 89.1307C355.436 89.1307 357.789 91.4639 357.789 94.357C357.789 97.2502 355.436 99.5833 352.518 99.5833ZM312.981 76.8348C312.911 76.1115 312.817 75.3882 312.746 74.6883C312.605 73.195 312.44 71.7018 312.299 70.2086C312.275 69.9752 312.299 69.7186 312.205 69.4853C312.134 69.3219 311.946 69.1353 311.781 69.0886C311.522 69.0186 311.358 69.2286 311.311 69.4619C311.122 70.2552 310.958 71.0485 310.793 71.8418C310.581 72.7984 310.393 73.755 310.181 74.7116C310.181 74.8049 310.11 74.8983 310.04 75.0849C309.851 74.6649 309.71 74.2916 309.522 73.9883C309.404 73.8017 309.169 73.5917 308.981 73.5917C308.792 73.5917 308.51 73.8017 308.439 73.965C308.204 74.6649 307.757 74.8283 307.051 74.8049C305.827 74.7349 304.58 74.7816 303.333 74.8049C303.027 74.8049 302.862 74.7349 302.744 74.455C301.732 72.2851 301.474 70.0919 302.627 67.8987C304.345 64.6789 308.957 63.979 311.428 66.5455C311.569 66.7088 311.711 66.8721 311.875 67.0588C311.946 66.9888 311.993 66.9654 312.04 66.8954C313.852 64.5622 317.453 64.4456 319.641 66.1721C320.983 67.2221 321.689 68.5987 321.854 70.2786C321.995 71.7485 321.642 73.1017 321.053 74.4316C320.936 74.7116 320.771 74.8283 320.442 74.8283C319.453 74.8283 318.488 74.8283 317.5 74.8283C317.265 74.8283 317.123 74.7583 317.006 74.5483C316.864 74.245 316.723 73.9417 316.511 73.685C316.394 73.5217 316.135 73.3817 315.97 73.3817C315.805 73.3817 315.57 73.5683 315.499 73.7317C315.217 74.315 315.005 74.8983 314.723 75.4815C314.676 75.5982 314.511 75.7382 314.417 75.7382C313.734 75.7382 313.334 76.0415 313.17 76.6948C313.17 76.7415 313.123 76.8115 313.076 76.8581C313.052 76.8581 313.005 76.8581 312.981 76.8581V76.8348ZM303.521 75.7849C303.874 76.2048 304.203 76.6248 304.58 77.0215C306.627 79.0513 309.051 80.5679 311.546 82.0145C311.805 82.1778 312.017 82.1545 312.252 82.0145C313.57 81.1745 314.935 80.3812 316.229 79.4946C317.57 78.5847 318.841 77.5581 319.9 76.2748C320.018 76.1115 320.136 75.9482 320.3 75.6915C319.241 75.6915 318.276 75.6915 317.335 75.6915C316.888 75.6915 316.582 75.5049 316.347 75.1316C316.276 74.9916 316.182 74.8749 316.041 74.6649C315.829 75.1549 315.641 75.5749 315.476 75.9715C315.311 76.3915 315.029 76.6481 314.535 76.6248C314.205 76.6015 314.064 76.7415 313.97 77.0448C313.758 77.7447 313.499 78.4214 313.264 79.098C313.17 79.3313 313.005 79.518 312.746 79.448C312.581 79.4013 312.44 79.1913 312.322 79.028C312.275 78.958 312.275 78.8413 312.275 78.7247C312.252 78.3514 312.205 77.9547 312.181 77.5814C312.04 76.0648 311.875 74.5716 311.734 73.055C311.734 72.915 311.664 72.7751 311.64 72.6117C311.405 73.265 311.287 73.895 311.146 74.5249C311.005 75.1549 310.91 75.7849 310.722 76.3915C310.675 76.5782 310.44 76.8115 310.252 76.8581C310.11 76.8815 309.875 76.6481 309.734 76.5082C309.64 76.4148 309.616 76.2515 309.546 76.1348C309.381 75.7615 309.193 75.3882 308.957 74.8749C308.604 75.7382 307.945 75.6915 307.286 75.6682C306.18 75.6682 305.098 75.6682 303.992 75.6682C303.85 75.6682 303.709 75.6682 303.592 75.6682L303.521 75.7849Z" fill="white"/>
<path d="M231.848 84.1327C230.224 82.6628 229.518 81.1695 229.73 79.6763C229.941 78.1597 230.93 76.6198 232.648 75.0566L255.546 54.3146C256.935 53.0546 258.253 52.9846 259.476 54.0812L260.677 55.1545C261.265 55.6911 261.547 56.2744 261.5 56.8811C261.453 57.4877 261.1 58.0943 260.465 58.6776L240.037 77.1564" fill="white"/>
<path d="M246.256 63.2021C247.88 64.6721 248.586 66.1653 248.374 67.6585C248.162 69.1751 247.174 70.715 245.456 72.2782L222.557 93.0202C221.169 94.2802 219.851 94.3502 218.627 93.2536L217.427 92.1803C216.838 91.6437 216.556 91.0604 216.603 90.4537C216.65 89.8471 217.003 89.2405 217.638 88.6572L238.066 70.1784" fill="white"/>
<path d="M238.066 77.1564L217.638 58.6776C216.98 58.0943 216.626 57.4877 216.603 56.8811C216.556 56.2744 216.838 55.6911 217.427 55.1545L218.627 54.0812C219.851 52.9846 221.169 53.0546 222.557 54.3146L245.456 75.0566C247.197 76.6198 248.162 78.1597 248.374 79.6763C248.586 81.1928 247.88 82.6628 246.256 84.1327" fill="white"/>
<path d="M240.062 70.1598L260.49 88.6386C261.149 89.2219 261.502 89.8286 261.525 90.4352C261.572 91.0418 261.29 91.6251 260.702 92.1617L259.501 93.235C258.278 94.3316 256.96 94.2616 255.571 93.0017L232.673 72.2597C230.931 70.6964 229.966 69.1565 229.754 67.64C229.543 66.1234 230.249 64.6535 231.872 63.1836" fill="white"/>
</g>
<defs>
<clipPath id="clip0_348_6610">
<rect width="483" height="157" fill="white"/>
</clipPath>
</defs>
</svg>
