<svg width="20" height="20" viewBox="0 0 20 20" fill="none" xmlns="http://www.w3.org/2000/svg">
<path fill-rule="evenodd" clip-rule="evenodd" d="M5.92095 1.34334C6.10521 1.22946 6.3353 1.21911 6.52904 1.31598L7.49954 1.80123L8.47003 1.31598C8.64613 1.22793 8.85343 1.22801 9.02946 1.31619L9.99905 1.8019L10.9847 1.31471C11.1609 1.2276 11.3679 1.22848 11.5433 1.31708L12.5 1.80008L13.4603 1.31672C13.6368 1.22793 13.8448 1.22775 14.0213 1.31623L14.9901 1.80168L15.972 1.31502C16.1475 1.228 16.3537 1.22835 16.529 1.31595L17.4998 1.80123L18.47 1.31602C18.6637 1.21912 18.8938 1.22945 19.0781 1.34332C19.2624 1.4572 19.3745 1.65838 19.3745 1.875V15C19.3745 15.9946 18.9794 16.9484 18.2762 17.6517C17.5729 18.3549 16.6191 18.75 15.6245 18.75H4.37454C3.59458 18.75 2.93771 18.6227 2.39811 18.3513C1.84855 18.0749 1.45739 17.6671 1.18944 17.1729C0.679739 16.2327 0.624605 14.9814 0.624536 13.7523C0.623507 13.5881 0.654978 13.4253 0.717146 13.2733C0.779722 13.1204 0.872147 12.9814 0.989027 12.8645C1.1059 12.7476 1.24489 12.6552 1.39788 12.5926C1.54985 12.5305 1.7126 12.499 1.87676 12.5H5.62454V1.875C5.62454 1.65839 5.73669 1.45722 5.92095 1.34334ZM6.87454 12.5H12.4995C12.8447 12.5 13.1245 12.7798 13.1245 13.125V15C13.1245 15.663 13.3879 16.2989 13.8568 16.7678C14.3256 17.2366 14.9615 17.5 15.6245 17.5C16.2876 17.5 16.9235 17.2366 17.3923 16.7678C17.8611 16.2989 18.1245 15.663 18.1245 15V2.88641L17.7795 3.05898C17.6036 3.14698 17.3965 3.14701 17.2205 3.05905L16.2484 2.57314L15.2662 3.05999C15.0904 3.1471 14.884 3.14665 14.7086 3.05877L13.7419 2.57439L12.7805 3.05828C12.6035 3.14737 12.3947 3.14723 12.2178 3.05792L11.2587 2.57365L10.2741 3.06029C10.0985 3.14709 9.8924 3.14654 9.71726 3.05881L8.74927 2.5739L7.77904 3.05902C7.60309 3.14699 7.39598 3.14699 7.22003 3.05902L6.87454 2.88627V12.5ZM12.8294 17.5C12.2161 16.8143 11.8745 15.9248 11.8745 15V13.75H1.87454C1.87454 15.0202 1.95129 15.9554 2.28834 16.5771C2.44393 16.8641 2.65516 17.0814 2.95982 17.2346C3.27445 17.3929 3.72363 17.5 4.37454 17.5H12.8294ZM8.12454 5.625C8.12454 5.27982 8.40436 5 8.74954 5H16.2495C16.5947 5 16.8745 5.27982 16.8745 5.625C16.8745 5.97018 16.5947 6.25 16.2495 6.25H8.74954C8.40436 6.25 8.12454 5.97018 8.12454 5.625ZM10.6245 8.75C10.6245 8.40482 10.9044 8.125 11.2495 8.125H16.2495C16.5947 8.125 16.8745 8.40482 16.8745 8.75C16.8745 9.09518 16.5947 9.375 16.2495 9.375H11.2495C10.9044 9.375 10.6245 9.09518 10.6245 8.75Z" fill="#8E8E8E"/>
</svg>
