<svg width="40" height="40" viewBox="0 0 40 40" fill="none" xmlns="http://www.w3.org/2000/svg">
<path d="M19.9999 12.0833C20.6902 12.0833 21.2499 12.643 21.2499 13.3333V21.6667C21.2499 22.357 20.6902 22.9167 19.9999 22.9167C19.3095 22.9167 18.7499 22.357 18.7499 21.6667V13.3333C18.7499 12.643 19.3095 12.0833 19.9999 12.0833Z" fill="#FF3A29"/>
<path d="M19.9999 28.3333C20.9204 28.3333 21.6666 27.5871 21.6666 26.6667C21.6666 25.7462 20.9204 25 19.9999 25C19.0794 25 18.3332 25.7462 18.3332 26.6667C18.3332 27.5871 19.0794 28.3333 19.9999 28.3333Z" fill="#FF3A29"/>
<path fill-rule="evenodd" clip-rule="evenodd" d="M13.8239 7.46072C15.6104 5.19155 17.503 3.75 19.9999 3.75C22.4968 3.75 24.3893 5.19154 26.1758 7.46071C27.9328 9.6924 29.7948 12.9937 32.177 17.2176L32.9029 18.5045C34.8722 21.9961 36.4276 24.7538 37.2446 26.9673C38.0795 29.2293 38.2779 31.2832 37.0149 33.0949C35.7892 34.8529 33.7443 35.5723 31.1652 35.9118C28.5959 36.25 25.1407 36.25 20.708 36.25H19.2919C14.8591 36.25 11.4039 36.25 8.83461 35.9118C6.25543 35.5723 4.21053 34.8529 2.9849 33.0949C1.72188 31.2832 1.92022 29.2293 2.75514 26.9673C3.57215 24.7538 5.12756 21.9961 7.09689 18.5045L7.82261 17.2178C10.2049 12.9938 12.0669 9.69244 13.8239 7.46072ZM15.7882 9.00719C14.1649 11.0691 12.395 14.1998 9.9415 18.5499L9.3354 19.6245C7.2917 23.2481 5.83938 25.8311 5.10048 27.833C4.37109 29.8091 4.47221 30.8568 5.03572 31.6652C5.63662 32.5271 6.76447 33.1177 9.1609 33.4332C11.5476 33.7474 14.8376 33.75 19.3938 33.75H20.606C25.1622 33.75 28.4522 33.7474 30.8389 33.4332C33.2353 33.1177 34.3631 32.5271 34.964 31.6652C35.5275 30.8568 35.6287 29.8091 34.8993 27.833C34.1604 25.8311 32.7081 23.2481 30.6644 19.6245L30.0583 18.5499C27.6048 14.1998 25.8349 11.0691 24.2115 9.00719C22.6033 6.96442 21.3542 6.25 19.9999 6.25C18.6456 6.25 17.3965 6.96442 15.7882 9.00719Z" fill="#FF3A29"/>
</svg>
