<svg width="20" height="20" viewBox="0 0 20 20" fill="none" xmlns="http://www.w3.org/2000/svg">
<path d="M2.12549 3.7487C2.17877 3.20698 2.2992 2.84235 2.57136 2.57019C3.05951 2.08203 3.84518 2.08203 5.41653 2.08203C6.98788 2.08203 7.77356 2.08203 8.26171 2.57019C8.74987 3.05834 8.74987 3.84402 8.74987 5.41536C8.74987 6.98671 8.74987 7.77239 8.26171 8.26054C7.77356 8.7487 6.98788 8.7487 5.41653 8.7487C3.84518 8.7487 3.05951 8.7487 2.57136 8.26054C2.31355 8.00273 2.19189 7.66194 2.13449 7.16625" stroke="#8E8E8E" stroke-width="1.5" stroke-linecap="round"/>
<path d="M17.8744 12.9167C17.8211 12.375 17.7007 12.0103 17.4285 11.7382C16.9404 11.25 16.1547 11.25 14.5833 11.25C13.012 11.25 12.2263 11.25 11.7382 11.7382C11.25 12.2263 11.25 13.012 11.25 14.5833C11.25 16.1547 11.25 16.9404 11.7382 17.4285C12.2263 17.9167 13.012 17.9167 14.5833 17.9167C16.1547 17.9167 16.9404 17.9167 17.4285 17.4285C17.7007 17.1564 17.8211 16.7917 17.8744 16.25" stroke="#8E8E8E" stroke-width="1.5" stroke-linecap="round"/>
<path d="M2.0835 14.5833C2.0835 13.012 2.0835 12.2263 2.57165 11.7382C3.05981 11.25 3.84548 11.25 5.41683 11.25C6.98818 11.25 7.77385 11.25 8.26201 11.7382C8.75016 12.2263 8.75016 13.012 8.75016 14.5833C8.75016 16.1547 8.75016 16.9404 8.26201 17.4285C7.77385 17.9167 6.98818 17.9167 5.41683 17.9167C3.84548 17.9167 3.05981 17.9167 2.57165 17.4285C2.0835 16.9404 2.0835 16.1547 2.0835 14.5833Z" stroke="#8E8E8E" stroke-width="1.5"/>
<path d="M11.25 5.41536C11.25 3.84402 11.25 3.05834 11.7382 2.57019C12.2263 2.08203 13.012 2.08203 14.5833 2.08203C16.1547 2.08203 16.9404 2.08203 17.4285 2.57019C17.9167 3.05834 17.9167 3.84402 17.9167 5.41536C17.9167 6.98671 17.9167 7.77239 17.4285 8.26054C16.9404 8.7487 16.1547 8.7487 14.5833 8.7487C13.012 8.7487 12.2263 8.7487 11.7382 8.26054C11.25 7.77239 11.25 6.98671 11.25 5.41536Z" stroke="#8E8E8E" stroke-width="1.5"/>
</svg>
