<svg width="20" height="20" viewBox="0 0 20 20" fill="none" xmlns="http://www.w3.org/2000/svg">
<path fill-rule="evenodd" clip-rule="evenodd" d="M5.625 2.5C4.93464 2.5 4.375 3.05964 4.375 3.75V16.25C4.375 16.9404 4.93464 17.5 5.625 17.5H14.375C15.0654 17.5 15.625 16.9404 15.625 16.25V3.75C15.625 3.05964 15.0654 2.5 14.375 2.5H5.625ZM3.125 3.75C3.125 2.36929 4.24429 1.25 5.625 1.25H14.375C15.7557 1.25 16.875 2.36929 16.875 3.75V16.25C16.875 17.6307 15.7557 18.75 14.375 18.75H5.625C4.24429 18.75 3.125 17.6307 3.125 16.25V3.75Z" fill="#8E8E8E"/>
<path fill-rule="evenodd" clip-rule="evenodd" d="M6.25 5C6.25 4.65482 6.52982 4.375 6.875 4.375H13.125C13.4702 4.375 13.75 4.65482 13.75 5C13.75 5.34518 13.4702 5.625 13.125 5.625H6.875C6.52982 5.625 6.25 5.34518 6.25 5Z" fill="#8E8E8E"/>
<path fill-rule="evenodd" clip-rule="evenodd" d="M6.25 8.125C6.25 7.77982 6.52982 7.5 6.875 7.5H13.125C13.4702 7.5 13.75 7.77982 13.75 8.125C13.75 8.47018 13.4702 8.75 13.125 8.75H6.875C6.52982 8.75 6.25 8.47018 6.25 8.125Z" fill="#8E8E8E"/>
<path fill-rule="evenodd" clip-rule="evenodd" d="M6.25 11.25C6.25 10.9048 6.52982 10.625 6.875 10.625H10C10.3452 10.625 10.625 10.9048 10.625 11.25C10.625 11.5952 10.3452 11.875 10 11.875H6.875C6.52982 11.875 6.25 11.5952 6.25 11.25Z" fill="#8E8E8E"/>
</svg>
