<svg width="20" height="20" viewBox="0 0 20 20" fill="none" xmlns="http://www.w3.org/2000/svg">
<path d="M13.125 10C12.3203 10 11.5469 9.64062 10.9375 8.99219C10.3477 8.35937 9.98439 7.51172 9.92189 6.60937C9.85549 5.64844 10.1485 4.76172 10.7461 4.11719C11.3438 3.47656 12.1875 3.125 13.125 3.125C14.0547 3.125 14.8985 3.48047 15.4961 4.12109C16.1016 4.76953 16.3946 5.65234 16.3242 6.60547C16.2578 7.50781 15.8985 8.35547 15.3086 8.98828C14.7032 9.64062 13.9297 10 13.125 10ZM13.125 4.375C12.5391 4.375 12.0196 4.58594 11.6641 4.96875C11.2969 5.36328 11.1289 5.89844 11.1719 6.51953C11.2149 7.13672 11.4571 7.71484 11.8555 8.14062C12.2227 8.53516 12.6758 8.75 13.125 8.75C13.5782 8.75 14.0274 8.53125 14.3946 8.14062C14.793 7.71484 15.0352 7.14062 15.0782 6.51953C15.1211 5.91797 14.9453 5.36719 14.5782 4.97656C14.2227 4.58594 13.7032 4.375 13.125 4.375Z" fill="#8E8E8E"/>
<path d="M18.2735 16.8751H7.97659C7.63675 16.8751 7.32425 16.7227 7.11722 16.4571C6.90238 16.1798 6.82425 15.8048 6.91019 15.4493C7.23831 14.129 8.05472 13.0352 9.26566 12.2813C10.3399 11.6134 11.711 11.2462 13.1211 11.2462C14.5586 11.2462 15.8946 11.5977 16.9766 12.2657C18.1914 13.0118 19.0078 14.1134 19.336 15.4493C19.4219 15.8048 19.3438 16.1798 19.1289 16.4571C18.9258 16.7227 18.6133 16.8751 18.2735 16.8751ZM8.16019 15.6251H18.0938C17.4492 13.3204 15.0313 12.5001 13.125 12.5001C11.2266 12.5001 8.81253 13.3204 8.16019 15.6251Z" fill="#8E8E8E"/>
<path d="M5.74221 10.1562C4.36721 10.1562 3.16018 8.87883 3.04689 7.30851C2.9883 6.50383 3.2383 5.76164 3.74611 5.21476C4.25002 4.6757 4.95705 4.37883 5.7383 4.37883C6.51564 4.37883 7.22268 4.67961 7.72658 5.22258C8.2383 5.77336 8.4883 6.51555 8.42971 7.31242C8.32424 8.87883 7.1133 10.1562 5.74221 10.1562ZM5.74221 5.62492C5.31252 5.62492 4.92971 5.78117 4.66408 6.06633C4.39064 6.3593 4.26174 6.75773 4.29689 7.21867C4.3633 8.13273 5.02346 8.90617 5.74221 8.90617C6.46096 8.90617 7.12502 8.13273 7.18752 7.21867C7.21877 6.76945 7.08596 6.3632 6.81643 6.07023C6.5508 5.78117 6.16799 5.62492 5.74221 5.62492Z" fill="#8E8E8E"/>
<path d="M6.01565 15.6249H1.62894C1.32034 15.6249 1.03519 15.4843 0.84378 15.246C0.648467 14.996 0.578155 14.6523 0.65628 14.332C0.925811 13.2421 1.59769 12.3437 2.59378 11.7265C3.47269 11.1835 4.58987 10.8827 5.73831 10.8827C6.72269 10.8827 7.56253 11.0468 8.30472 11.3866C8.61722 11.5312 8.75784 11.9023 8.61331 12.2148C8.46878 12.5273 8.09769 12.6679 7.78519 12.5234C7.21097 12.2616 6.543 12.1327 5.74222 12.1327C4.31644 12.1327 2.51565 12.7265 1.94534 14.3788H6.01565C6.3594 14.3788 6.64065 14.6601 6.64065 15.0038C6.64065 15.3476 6.3594 15.6249 6.01565 15.6249Z" fill="#8E8E8E"/>
</svg>
