<svg width="151" height="49" viewBox="0 0 151 49" fill="none" xmlns="http://www.w3.org/2000/svg">
<mask id="mask0_1662_6054" style="mask-type:luminance" maskUnits="userSpaceOnUse" x="0" y="0" width="150" height="49">
<path d="M149.95 0H0V49H149.95V0Z" fill="white"/>
</mask>
<g mask="url(#mask0_1662_6054)">
<path d="M8.2559 33.8164H9.8121V41.1638H8.06594V36.4597L5.39921 39.8823H4.40558L1.73885 36.4597V41.1638H0V33.8164H1.62927L4.94624 38.1274L8.2559 33.8164ZM16.4022 35.5787C17.6954 35.5787 18.236 36.103 18.236 37.4065V38.6589H12.6542V39.1176C12.6542 39.6711 12.8369 39.8459 13.3921 39.8459H15.9492C16.3803 39.8459 16.5411 39.6857 16.5411 39.256V39.1104H18.236V39.5909C18.236 40.6833 17.7392 41.1638 16.6579 41.1638H12.7272C11.4341 41.1638 10.8934 40.6395 10.8934 39.3361V37.4065C10.8934 36.103 11.4341 35.5787 12.7272 35.5787H16.4022ZM12.6542 37.6249H16.5411V37.5229C16.5411 36.9696 16.3583 36.802 15.8032 36.802H13.3921C12.8369 36.802 12.6542 36.9696 12.6542 37.5229V37.6249ZM24.892 33.8164H26.638V41.1638H25.1841L25.0234 40.4575C24.6727 40.7489 24.3585 40.9382 24.0883 41.0256C23.8179 41.1202 23.4161 41.1638 22.8901 41.1638H21.0343C19.7411 41.1638 19.2004 40.6395 19.2004 39.3361V37.4065C19.2004 36.103 19.7411 35.5787 21.0343 35.5787H22.8901C23.3869 35.5787 23.7741 35.6078 24.0371 35.6806C24.3001 35.7534 24.585 35.921 24.892 36.1758V33.8164ZM23.4673 39.8022C23.9422 39.8022 24.3001 39.7075 24.5559 39.5109L24.892 39.256V37.4939L24.5559 37.2389C24.3148 37.0424 23.9567 36.9476 23.4673 36.9476H21.6845C21.1292 36.9476 20.9466 37.1152 20.9466 37.6759V39.0812C20.9466 39.6347 21.1292 39.8022 21.6845 39.8022H23.4673ZM35.5808 33.8164V35.4111H32.4026V41.1638H30.5468V35.4111H27.3687V33.8164H35.5808ZM40.8266 35.5787V37.1443H39.0584C38.5836 37.1443 38.2256 37.2462 37.9626 37.4501L37.6338 37.705V41.1712H35.8876V35.5859H37.1515L37.3415 36.3723L37.3854 36.3433C37.7507 36.0156 38.0794 35.819 38.3571 35.7243C38.6201 35.6296 39.0292 35.5859 39.5699 35.5859H40.8338L40.8266 35.5787ZM46.7591 35.5787C48.0523 35.5787 48.593 36.103 48.593 37.4065V41.1638H47.1317L46.971 40.4939C46.6349 40.7853 46.35 40.9746 46.1089 41.0474C45.8677 41.1202 45.4951 41.1638 44.9837 41.1638H42.58C41.6959 41.1638 41.2503 40.7197 41.2503 39.8386V39.2269C41.2503 38.3458 41.6959 37.9016 42.58 37.9016H46.8321V37.5011C46.8321 36.9476 46.6495 36.7729 46.0942 36.7729H43.7856C43.3545 36.7729 43.1937 36.9332 43.1937 37.3627V37.5229H41.4987V37.1443C41.4987 36.052 41.9956 35.5714 43.0768 35.5714H46.7518L46.7591 35.5787ZM45.5389 40.0424C45.9189 40.0424 46.2258 39.9478 46.4668 39.7731L46.8321 39.4891V38.8628H43.5152C43.128 38.8628 43.011 38.9866 43.011 39.3653V39.5401C43.011 39.926 43.128 40.0424 43.5152 40.0424H45.5389ZM55.2123 35.5787C56.5055 35.5787 57.0461 36.103 57.0461 37.4065V41.1638H55.2853V37.6977C55.2853 37.1443 55.1172 36.9768 54.5621 36.9768H52.8889C52.414 36.9768 52.056 37.0788 51.793 37.2827L51.4642 37.5375V41.1712H49.7181V35.5859H51.172L51.3328 36.2923C51.6907 36.001 52.0049 35.8116 52.2679 35.717C52.5309 35.6296 52.9328 35.5932 53.4588 35.5932H55.2196L55.2123 35.5787ZM58.069 39.3361H59.7639V39.6639C59.7639 39.9041 59.8516 39.9915 60.1 39.9915H63.2051C63.4609 39.9915 63.5413 39.9041 63.5413 39.6639V39.3507C63.5413 39.1104 63.4536 39.0448 63.2051 39.0158L59.4425 38.7609C58.5877 38.7099 58.1712 38.2875 58.1712 37.5011V36.853C58.1712 36.0447 58.6462 35.5859 59.4425 35.5859H63.8774C64.6809 35.5859 65.1486 36.0593 65.1486 36.8676V37.3481H63.4536V37.086C63.4536 36.8458 63.3659 36.7584 63.1174 36.7584H60.2608C60.0051 36.7584 59.9247 36.8458 59.9247 37.086V37.2025C59.9247 37.4573 60.0123 37.5157 60.2608 37.5521L64.0234 37.8069C64.8783 37.8579 65.2946 38.2803 65.2946 39.0668V39.9041C65.2946 40.7125 64.8198 41.1712 64.0234 41.1712H59.333C58.5293 41.1712 58.0616 40.6979 58.0616 39.8896V39.3434L58.069 39.3361ZM71.4027 39.6711H77.1525V41.1638H69.5395V33.8164H77.0502V35.3093H71.4027V36.7074H76.6264V38.069H71.4027V39.6784V39.6711ZM77.4301 41.1638L80.2868 38.3167L77.5397 35.5787H79.9069L81.5946 37.3627L83.2824 35.5787H85.5399L82.8001 38.3167L85.6422 41.1638H83.275L81.4924 39.2633L79.7024 41.1638H77.4375H77.4301ZM91.8012 35.5787C93.0945 35.5787 93.6351 36.103 93.6351 37.4065V39.3361C93.6351 40.6395 93.0945 41.1638 91.8012 41.1638H89.9382C89.4414 41.1638 89.0615 41.1202 88.7985 41.0474C88.5354 40.9746 88.2505 40.8143 87.9436 40.5667V42.8461H86.1975V35.5787H87.6514L87.8122 36.285C88.1701 35.9938 88.4843 35.8044 88.7473 35.7098C89.0103 35.6224 89.4122 35.5859 89.9382 35.5859H91.8012V35.5787ZM91.8743 37.6686C91.8743 37.1152 91.7063 36.9404 91.1438 36.9404H89.361C88.8789 36.9404 88.5062 37.035 88.2651 37.2317L87.9363 37.4865V39.2488L88.2651 39.5037C88.5282 39.7003 88.8861 39.7949 89.361 39.7949H91.1438C91.6989 39.7949 91.8743 39.6275 91.8743 39.074V37.6686ZM99.6407 35.5787V37.1443H97.8726C97.3977 37.1443 97.0398 37.2462 96.7768 37.4501L96.4479 37.705V41.1712H94.7019V35.5859H95.9658L96.1557 36.3723L96.1996 36.3433C96.5649 36.0156 96.8936 35.819 97.1712 35.7243C97.4342 35.6296 97.8435 35.5859 98.384 35.5859H99.648L99.6407 35.5787ZM105.763 35.5787C107.056 35.5787 107.597 36.103 107.597 37.4065V38.6589H102.015V39.1176C102.015 39.6711 102.198 39.8459 102.753 39.8459H105.31C105.741 39.8459 105.902 39.6857 105.902 39.256V39.1104H107.597V39.5909C107.597 40.6833 107.1 41.1638 106.019 41.1638H102.088C100.795 41.1638 100.254 40.6395 100.254 39.3361V37.4065C100.254 36.103 100.795 35.5787 102.088 35.5787H105.763ZM102.015 37.6249H105.902V37.5229C105.902 36.9696 105.719 36.802 105.164 36.802H102.753C102.198 36.802 102.015 36.9696 102.015 37.5229V37.6249ZM108.569 39.3361H110.264V39.6639C110.264 39.9041 110.352 39.9915 110.6 39.9915H113.705C113.961 39.9915 114.041 39.9041 114.041 39.6639V39.3507C114.041 39.1104 113.953 39.0448 113.705 39.0158L109.942 38.7609C109.087 38.7099 108.671 38.2875 108.671 37.5011V36.853C108.671 36.0447 109.146 35.5859 109.942 35.5859H114.377C115.181 35.5859 115.648 36.0593 115.648 36.8676V37.3481H113.953V37.086C113.953 36.8458 113.866 36.7584 113.617 36.7584H110.761C110.505 36.7584 110.425 36.8458 110.425 37.086V37.2025C110.425 37.4573 110.512 37.5157 110.761 37.5521L114.523 37.8069C115.378 37.8579 115.795 38.2803 115.795 39.0668V39.9041C115.795 40.7125 115.32 41.1712 114.523 41.1712H109.833C109.029 41.1712 108.561 40.6979 108.561 39.8896V39.3434L108.569 39.3361ZM116.693 39.3361H118.389V39.6639C118.389 39.9041 118.475 39.9915 118.725 39.9915H121.829C122.085 39.9915 122.165 39.9041 122.165 39.6639V39.3507C122.165 39.1104 122.078 39.0448 121.829 39.0158L118.067 38.7609C117.212 38.7099 116.796 38.2875 116.796 37.5011V36.853C116.796 36.0447 117.271 35.5859 118.067 35.5859H122.502C123.305 35.5859 123.773 36.0593 123.773 36.8676V37.3481H122.078V37.086C122.078 36.8458 121.99 36.7584 121.741 36.7584H118.885C118.63 36.7584 118.549 36.8458 118.549 37.086V37.2025C118.549 37.4573 118.637 37.5157 118.885 37.5521L122.647 37.8069C123.503 37.8579 123.918 38.2803 123.918 39.0668V39.9041C123.918 40.7125 123.444 41.1712 122.647 41.1712H117.957C117.154 41.1712 116.686 40.6979 116.686 39.8896V39.3434L116.693 39.3361ZM128.215 33.8164H130.093V41.1638H128.215V33.8164ZM136.807 35.5787C138.1 35.5787 138.64 36.103 138.64 37.4065V41.1638H136.88V37.6977C136.88 37.1443 136.712 36.9768 136.156 36.9768H134.484C134.008 36.9768 133.65 37.0788 133.388 37.2827L133.059 37.5375V41.1712H131.313V35.5859H132.767L132.927 36.2923C133.285 36.001 133.6 35.8116 133.862 35.717C134.126 35.6296 134.527 35.5932 135.054 35.5932H136.814L136.807 35.5787ZM139.663 37.4065C139.663 36.103 140.204 35.5787 141.498 35.5787H144.998C146.29 35.5787 146.831 36.103 146.831 37.4065V37.8798H145.143V37.6686C145.143 37.1152 144.96 36.9404 144.405 36.9404H142.147C141.592 36.9404 141.41 37.1079 141.41 37.6686V39.074C141.41 39.6275 141.585 39.7949 142.147 39.7949H144.405C144.96 39.7949 145.143 39.6275 145.143 39.074V38.8046H146.831V39.3434C146.831 40.6469 146.298 41.1712 144.998 41.1712H141.498C140.204 41.1712 139.663 40.6469 139.663 39.3434V37.4137V37.4065ZM147.898 41.1638V39.2342H149.965V41.1638H147.898Z" fill="#005399"/>
<path d="M18.1745 44.4911L16.3114 46.8141V48.1612H15.3835V46.8141L13.5205 44.4911H14.6456L15.8803 46.1004L17.1078 44.4911H18.1817H18.1745ZM18.6201 48.1686C17.9699 48.1686 17.7068 47.9064 17.7068 47.2584V46.2898C17.7068 45.6417 17.9772 45.3796 18.6201 45.3796H20.5051C21.1554 45.3796 21.4184 45.6417 21.4184 46.2898V47.2584C21.4184 47.9064 21.1481 48.1686 20.5051 48.1686H18.6201ZM20.1763 47.484C20.454 47.484 20.5417 47.3966 20.5417 47.12V46.4136C20.5417 46.1368 20.454 46.0495 20.1763 46.0495H18.9416C18.664 46.0495 18.5763 46.1368 18.5763 46.4136V47.12C18.5763 47.3966 18.664 47.484 18.9416 47.484H20.1763ZM25.5975 45.3723V48.1686H24.8742L24.7938 47.8191C24.6112 47.9647 24.4577 48.0593 24.3263 48.103C24.1947 48.1467 23.9974 48.1686 23.7344 48.1686H22.8577C22.2075 48.1686 21.9444 47.9064 21.9444 47.2584V45.3796H22.8212V47.1126C22.8212 47.3894 22.9088 47.4768 23.1865 47.4768H24.0267C24.2605 47.4768 24.4431 47.4258 24.5746 47.3238L24.7354 47.2V45.3869H25.6121L25.5975 45.3723ZM28.6442 45.3723V46.1514H27.76C27.5263 46.1514 27.3437 46.2024 27.2121 46.3044L27.0514 46.4282V48.1612H26.1747V45.365H26.8103L26.9053 45.7583L26.9272 45.7437C27.1098 45.5835 27.2779 45.4815 27.4093 45.4305C27.5409 45.3869 27.7455 45.365 28.0158 45.365H28.6514L28.6442 45.3723ZM33.3858 45.3723C34.036 45.3723 34.299 45.6345 34.299 46.2826V47.251C34.299 47.8991 34.0288 48.1612 33.3858 48.1612H32.4506C32.2023 48.1612 32.0123 48.1394 31.8807 48.103C31.7493 48.0666 31.6104 47.9865 31.457 47.8627V48.9987H30.5802V45.365H31.3035L31.3839 45.7145C31.5665 45.5689 31.72 45.4743 31.8516 45.4233C31.983 45.3796 32.1802 45.3577 32.4433 45.3577H33.3785L33.3858 45.3723ZM33.4223 46.4136C33.4223 46.1368 33.3346 46.0495 33.057 46.0495H32.1656C31.9246 46.0495 31.7419 46.1004 31.6177 46.1952L31.457 46.319V47.2L31.6177 47.3238C31.7492 47.4258 31.9319 47.4695 32.1656 47.4695H33.057C33.3346 47.4695 33.4223 47.3821 33.4223 47.1054V46.399V46.4136ZM37.543 45.3723C38.1932 45.3723 38.4562 45.6345 38.4562 46.2826V48.1612H37.7256L37.6453 47.8263C37.4772 47.9719 37.3311 48.0666 37.2142 48.103C37.09 48.1394 36.9074 48.1612 36.6516 48.1612H35.4534C35.0077 48.1612 34.7886 47.9428 34.7886 47.4986V47.1928C34.7886 46.7485 35.0077 46.5301 35.4534 46.5301H37.5795V46.3335C37.5795 46.0568 37.4918 45.9694 37.2142 45.9694H36.0598C35.8406 45.9694 35.7676 46.0495 35.7676 46.2606V46.3408H34.92V46.1514C34.92 45.6053 35.1685 45.365 35.7091 45.365H37.5502L37.543 45.3723ZM36.9293 47.6005C37.1192 47.6005 37.2727 47.5496 37.3895 47.4622L37.5722 47.3238V47.0107H35.9137C35.7165 47.0107 35.658 47.0762 35.658 47.2656V47.353C35.658 47.5496 35.7165 47.6078 35.9137 47.6078H36.922L36.9293 47.6005ZM41.4883 45.3723V46.1514H40.6042C40.3704 46.1514 40.1878 46.2024 40.0562 46.3044L39.8955 46.4282V48.1612H39.0188V45.365H39.6544L39.7494 45.7583L39.7713 45.7437C39.9539 45.5835 40.122 45.4815 40.2535 45.4305C40.385 45.3869 40.5897 45.365 40.8599 45.365H41.4883V45.3723ZM44.7102 46.0422H43.2564V47.1928C43.2564 47.4112 43.3367 47.484 43.5486 47.484H44.7102V48.1686H43.176C42.6353 48.1686 42.3869 47.9283 42.3869 47.3821V46.0422H41.6417V45.3723H42.3869L42.5623 44.7461H43.2636V45.3723H44.7176V46.0422H44.7102ZM47.8738 45.3723C48.5241 45.3723 48.7871 45.6345 48.7871 46.2826V48.1612H47.9103V46.4282C47.9103 46.1514 47.8227 46.064 47.545 46.064H46.7048C46.471 46.064 46.2883 46.115 46.1569 46.217L45.9962 46.3408V48.154H45.1194V45.3577H45.8427L45.9231 45.7073C46.1057 45.5617 46.2592 45.4669 46.3906 45.416C46.5222 45.3723 46.7194 45.3504 46.9825 45.3504H47.8592L47.8738 45.3723ZM52.0529 45.3723C52.7031 45.3723 52.9662 45.6345 52.9662 46.2826V46.9088H50.1752V47.1418C50.1752 47.4185 50.2629 47.5059 50.5406 47.5059H51.8191C52.0383 47.5059 52.1113 47.4258 52.1113 47.2146V47.1418H52.9589V47.3821C52.9589 47.9283 52.7104 48.1686 52.1698 48.1686H50.2045C49.5543 48.1686 49.2912 47.9064 49.2912 47.2584V46.2898C49.2912 45.6417 49.5615 45.3796 50.2045 45.3796H52.0456L52.0529 45.3723ZM50.1752 46.399H52.1187V46.348C52.1187 46.0714 52.031 45.984 51.7534 45.984H50.5478C50.2702 45.984 50.1825 46.0714 50.1825 46.348V46.399H50.1752ZM55.9689 45.3723V46.1514H55.085C54.8511 46.1514 54.6685 46.2024 54.537 46.3044L54.3762 46.4282V48.1612H53.4995V45.365H54.1352L54.2301 45.7583L54.252 45.7437C54.4347 45.5835 54.6027 45.4815 54.7343 45.4305C54.8657 45.3869 55.0703 45.365 55.3406 45.365H55.9689V45.3723ZM57.9343 45.1102V44.4911H58.8329V45.1102H57.9343ZM57.9343 48.1686V45.3723H58.8329V48.1686H57.9343ZM62.1719 45.3723C62.8221 45.3723 63.0851 45.6345 63.0851 46.2826V48.1612H62.2084V46.4282C62.2084 46.1514 62.1207 46.064 61.8431 46.064H61.0029C60.7691 46.064 60.5864 46.115 60.4549 46.217L60.2942 46.3408V48.154H59.4175V45.3577H60.1408L60.2211 45.7073C60.4038 45.5617 60.5572 45.4669 60.6887 45.416C60.8203 45.3723 61.0175 45.3504 61.2805 45.3504H62.1573L62.1719 45.3723ZM68.0898 46.0422H66.6359V47.1928C66.6359 47.4112 66.7163 47.484 66.9282 47.484H68.0898V48.1686H66.5556C66.0149 48.1686 65.7665 47.9283 65.7665 47.3821V46.0422H65.0212V45.3723H65.7665L65.9419 44.7461H66.6432V45.3723H68.0971V46.0422H68.0898ZM71.2533 45.3723C71.9035 45.3723 72.1666 45.6345 72.1666 46.2826V48.1612H71.2898V46.4282C71.2898 46.1514 71.2022 46.064 70.9246 46.064H70.0844C69.8505 46.064 69.6679 46.115 69.5364 46.217L69.3756 46.3408V48.154H68.4989V44.4766H69.3756V45.6855C69.5364 45.5471 69.6898 45.4597 69.8214 45.416C69.9528 45.3796 70.1428 45.3577 70.3986 45.3577H71.2461L71.2533 45.3723ZM75.4324 45.3723C76.0827 45.3723 76.3458 45.6345 76.3458 46.2826V46.9088H73.5547V47.1418C73.5547 47.4185 73.6424 47.5059 73.92 47.5059H75.1986C75.4179 47.5059 75.4909 47.4258 75.4909 47.2146V47.1418H76.3384V47.3821C76.3384 47.9283 76.09 48.1686 75.5493 48.1686H73.584C72.9337 48.1686 72.6707 47.9064 72.6707 47.2584V46.2898C72.6707 45.6417 72.941 45.3796 73.584 45.3796H75.4251L75.4324 45.3723ZM73.5547 46.399H75.4982V46.348C75.4982 46.0714 75.4105 45.984 75.1328 45.984H73.9274C73.6498 45.984 73.5621 46.0714 73.5621 46.348V46.399H73.5547ZM82.9139 45.3723H83.8272L82.5558 48.1686H81.8034L81.007 46.3335L80.2253 48.1686H79.4581L78.1868 45.3723H79.1367L79.8891 47.2074L80.6855 45.3723H81.365L82.1686 47.2074L82.9139 45.3723ZM86.6985 45.3723C87.3487 45.3723 87.6118 45.6345 87.6118 46.2826V46.9088H84.8208V47.1418C84.8208 47.4185 84.9085 47.5059 85.186 47.5059H86.4646C86.6839 47.5059 86.7569 47.4258 86.7569 47.2146V47.1418H87.6044V47.3821C87.6044 47.9283 87.356 48.1686 86.8153 48.1686H84.85C84.1997 48.1686 83.9367 47.9064 83.9367 47.2584V46.2898C83.9367 45.6417 84.2071 45.3796 84.85 45.3796H86.6911L86.6985 45.3723ZM84.8208 46.399H86.7642V46.348C86.7642 46.0714 86.6765 45.984 86.3988 45.984H85.1934C84.9158 45.984 84.8281 46.0714 84.8281 46.348V46.399H84.8208ZM88.1669 48.1686V44.4911H89.0583V48.1686H88.1669ZM89.672 48.1686V44.4911H90.5634V48.1686H89.672ZM93.9096 45.3723C94.5599 45.3723 94.8229 45.6345 94.8229 46.2826V48.1612H93.9461V46.4282C93.9461 46.1514 93.8585 46.064 93.5808 46.064H92.7406C92.5069 46.064 92.3241 46.115 92.1927 46.217L92.032 46.3408V48.154H91.1552V45.3577H91.8785L91.9588 45.7073C92.1415 45.5617 92.295 45.4669 92.4264 45.416C92.558 45.3723 92.7552 45.3504 93.0183 45.3504H93.895L93.9096 45.3723ZM98.0887 45.3723C98.7389 45.3723 99.002 45.6345 99.002 46.2826V46.9088H96.211V47.1418C96.211 47.4185 96.2987 47.5059 96.5764 47.5059H97.8548C98.0741 47.5059 98.1471 47.4258 98.1471 47.2146V47.1418H98.9946V47.3821C98.9946 47.9283 98.7462 48.1686 98.2055 48.1686H96.2402C95.5899 48.1686 95.3269 47.9064 95.3269 47.2584V46.2898C95.3269 45.6417 95.5973 45.3796 96.2402 45.3796H98.0813L98.0887 45.3723ZM96.211 46.399H98.1545V46.348C98.1545 46.0714 98.0668 45.984 97.7892 45.984H96.5836C96.306 45.984 96.2183 46.0714 96.2183 46.348V46.399H96.211ZM99.4841 47.2584H100.332V47.4185C100.332 47.5423 100.375 47.5787 100.5 47.5787H102.056C102.18 47.5787 102.224 47.535 102.224 47.4185V47.2584C102.224 47.1345 102.18 47.1054 102.056 47.0908L100.178 46.967C99.7545 46.9379 99.5426 46.7341 99.5426 46.3408V46.0131C99.5426 45.6053 99.7764 45.3796 100.178 45.3796H102.392C102.794 45.3796 103.028 45.6125 103.028 46.0204V46.2606H102.18V46.1296C102.18 46.0058 102.136 45.9694 102.012 45.9694H100.587C100.463 45.9694 100.419 46.0131 100.419 46.1296V46.1878C100.419 46.3116 100.463 46.348 100.587 46.3626L102.465 46.4864C102.889 46.5155 103.101 46.7195 103.101 47.12V47.5423C103.101 47.9428 102.867 48.1758 102.465 48.1758H100.12C99.718 48.1758 99.4841 47.9428 99.4841 47.535V47.2656V47.2584ZM103.546 47.2584H104.394V47.4185C104.394 47.5423 104.438 47.5787 104.562 47.5787H106.118C106.242 47.5787 106.286 47.535 106.286 47.4185V47.2584C106.286 47.1345 106.242 47.1054 106.118 47.0908L104.24 46.967C103.817 46.9379 103.605 46.7341 103.605 46.3408V46.0131C103.605 45.6053 103.839 45.3796 104.24 45.3796H106.454C106.856 45.3796 107.09 45.6125 107.09 46.0204V46.2606H106.242V46.1296C106.242 46.0058 106.198 45.9694 106.074 45.9694H104.65C104.525 45.9694 104.482 46.0131 104.482 46.1296V46.1878C104.482 46.3116 104.525 46.348 104.65 46.3626L106.527 46.4864C106.951 46.5155 107.163 46.7195 107.163 47.12V47.5423C107.163 47.9428 106.929 48.1758 106.527 48.1758H104.182C103.78 48.1758 103.546 47.9428 103.546 47.535V47.2656V47.2584ZM112.08 45.3796C112.73 45.3796 112.993 45.6417 112.993 46.2898V47.2584C112.993 47.9064 112.723 48.1686 112.08 48.1686H111.145C110.896 48.1686 110.706 48.1467 110.575 48.1103C110.443 48.0739 110.304 47.9938 110.151 47.8699V49.0059H109.274V45.3723H109.998L110.078 45.7219C110.261 45.5761 110.414 45.4815 110.546 45.4305C110.677 45.3869 110.874 45.365 111.137 45.365H112.073L112.08 45.3796ZM112.116 46.4209C112.116 46.1442 112.029 46.0568 111.751 46.0568H110.86C110.619 46.0568 110.436 46.1078 110.312 46.2024L110.151 46.3262V47.2074L110.312 47.3312C110.443 47.4331 110.626 47.4768 110.86 47.4768H111.751C112.029 47.4768 112.116 47.3894 112.116 47.1126V46.4063V46.4209ZM115.996 45.3796V46.1588H115.112C114.878 46.1588 114.695 46.2098 114.564 46.3116L114.403 46.4354V48.1686H113.527V45.3723H114.155L114.25 45.7655L114.272 45.7509C114.454 45.5907 114.622 45.4888 114.754 45.4378C114.885 45.3941 115.09 45.3723 115.36 45.3723H115.989L115.996 45.3796ZM117.216 48.1758C116.566 48.1758 116.303 47.9137 116.303 47.2656V46.2971C116.303 45.6491 116.573 45.3869 117.216 45.3869H119.101C119.751 45.3869 120.014 45.6491 120.014 46.2971V47.2656C120.014 47.9137 119.744 48.1758 119.101 48.1758H117.216ZM118.772 47.4913C119.05 47.4913 119.138 47.404 119.138 47.1272V46.4209C119.138 46.1442 119.05 46.0568 118.772 46.0568H117.537C117.26 46.0568 117.172 46.1442 117.172 46.4209V47.1272C117.172 47.404 117.26 47.4913 117.537 47.4913H118.772ZM120.497 46.2971C120.497 45.6491 120.767 45.3869 121.41 45.3869H123.156C123.806 45.3869 124.069 45.6491 124.069 46.2971V46.5301H123.229V46.4282C123.229 46.1514 123.141 46.064 122.863 46.064H121.739C121.461 46.064 121.373 46.1514 121.373 46.4282V47.1345C121.373 47.4112 121.461 47.4986 121.739 47.4986H122.863C123.141 47.4986 123.229 47.4112 123.229 47.1345V46.9962H124.069V47.2656C124.069 47.9137 123.799 48.1758 123.156 48.1758H121.41C120.76 48.1758 120.497 47.9137 120.497 47.2656V46.2971ZM127.313 45.3869C127.964 45.3869 128.227 45.6491 128.227 46.2971V46.9233H125.435V47.1564C125.435 47.4331 125.523 47.5205 125.8 47.5205H127.08C127.299 47.5205 127.371 47.4404 127.371 47.2292V47.1564H128.219V47.3966C128.219 47.9428 127.971 48.1831 127.43 48.1831H125.464C124.815 48.1831 124.551 47.9209 124.551 47.2728V46.3044C124.551 45.6563 124.822 45.3941 125.464 45.3941H127.306L127.313 45.3869ZM125.435 46.4136H127.379V46.3626C127.379 46.0859 127.292 45.9985 127.013 45.9985H125.809C125.53 45.9985 125.442 46.0859 125.442 46.3626V46.4136H125.435ZM128.708 47.2728H129.557V47.4331C129.557 47.5569 129.6 47.5933 129.724 47.5933H131.281C131.405 47.5933 131.448 47.5496 131.448 47.4331V47.2728C131.448 47.149 131.405 47.12 131.281 47.1054L129.402 46.9816C128.978 46.9525 128.767 46.7485 128.767 46.3554V46.0276C128.767 45.6199 129.001 45.3941 129.402 45.3941H131.617C132.018 45.3941 132.252 45.6271 132.252 46.035V46.2752H131.405V46.1442C131.405 46.0204 131.36 45.984 131.236 45.984H129.812C129.688 45.984 129.643 46.0276 129.643 46.1442V46.2024C129.643 46.3262 129.688 46.3626 129.812 46.3772L131.689 46.501C132.113 46.5301 132.325 46.7341 132.325 47.1345V47.5569C132.325 47.9573 132.091 48.1904 131.689 48.1904H129.345C128.942 48.1904 128.708 47.9574 128.708 47.5496V47.2802V47.2728ZM132.771 47.2728H133.618V47.4331C133.618 47.5569 133.662 47.5933 133.786 47.5933H135.343C135.467 47.5933 135.51 47.5496 135.51 47.4331V47.2728C135.51 47.149 135.467 47.12 135.343 47.1054L133.465 46.9816C133.041 46.9525 132.829 46.7485 132.829 46.3554V46.0276C132.829 45.6199 133.064 45.3941 133.465 45.3941H135.679C136.08 45.3941 136.314 45.6271 136.314 46.035V46.2752H135.467V46.1442C135.467 46.0204 135.423 45.984 135.298 45.984H133.874C133.75 45.984 133.706 46.0276 133.706 46.1442V46.2024C133.706 46.3262 133.75 46.3626 133.874 46.3772L135.751 46.501C136.175 46.5301 136.387 46.7341 136.387 47.1345V47.5569C136.387 47.9573 136.154 48.1904 135.751 48.1904H133.407C133.005 48.1904 132.771 47.9574 132.771 47.5496V47.2802V47.2728Z" fill="#31AAE1"/>
<path d="M44.007 17.491C44.1823 17.1779 44.3796 16.9594 44.5987 16.8284C44.8179 16.6972 45.1247 16.6318 45.5266 16.6318H47.2728C48.4125 16.6318 48.9824 17.0759 48.9824 17.957V28.4284C48.9824 28.7125 48.9093 28.9381 48.7632 29.0984C48.617 29.2586 48.4052 29.3386 48.113 29.3386H47.1193C46.8344 29.3386 46.6152 29.2586 46.4618 29.0984C46.3084 28.9381 46.2353 28.7125 46.2353 28.4284V19.7702C46.2353 19.6464 46.2061 19.5518 46.1477 19.5008C46.0891 19.4499 46.0235 19.4135 45.9503 19.4135C45.8116 19.4135 45.6728 19.5299 45.5412 19.7702L40.4781 28.5741C40.3247 28.8363 40.1712 29.0255 40.0178 29.1566C39.8644 29.2804 39.6452 29.346 39.3675 29.346H38.3959C38.1328 29.346 37.9282 29.2804 37.7894 29.1566C37.6433 29.0329 37.4972 28.8435 37.351 28.5959L32.3026 19.792C32.1491 19.5445 32.0176 19.4207 31.8934 19.4207C31.8203 19.4207 31.7546 19.4425 31.6961 19.4935C31.6377 19.5445 31.6085 19.6319 31.6085 19.7556V28.4138C31.6085 28.6979 31.5354 28.9309 31.3893 29.0984C31.2431 29.2658 31.0313 29.3532 30.7391 29.3532H29.7601C29.4605 29.3532 29.234 29.2658 29.0878 29.0984C28.9345 28.9309 28.8613 28.7051 28.8613 28.4138V17.9643C28.8613 17.0833 29.4313 16.639 30.571 16.639H32.3318C32.7336 16.639 33.0405 16.7046 33.2596 16.8429C33.4789 16.9813 33.6761 17.2071 33.8515 17.5128L38.637 26.0181C38.7466 26.2148 38.8635 26.3167 38.9731 26.3167C39.0826 26.3167 39.1922 26.222 39.2945 26.0327L43.9996 17.491H44.007ZM65.202 18.0153C65.202 18.5542 64.9024 18.8164 64.3032 18.8164H59.9927C59.5325 18.8164 59.2986 19.0129 59.2986 19.4135V28.4212C59.2986 28.7051 59.2255 28.9309 59.0867 29.0911C58.9406 29.2513 58.7288 29.3314 58.4365 29.3314H57.3844C57.0995 29.3314 56.8802 29.244 56.7269 29.0765C56.5734 28.9091 56.5004 28.6833 56.5004 28.392V19.4207C56.5004 19.2095 56.4493 19.0566 56.3397 18.9547C56.23 18.8528 56.0547 18.8018 55.8063 18.8018H51.4958C51.2107 18.8018 50.9842 18.7362 50.8309 18.6052C50.6774 18.4741 50.597 18.2701 50.597 18.0007V17.4182C50.597 16.8793 50.8966 16.6172 51.4958 16.6172H64.3032C64.5883 16.6172 64.8148 16.6828 64.9681 16.8138C65.1216 16.9449 65.202 17.1487 65.202 17.4182V18.0007V18.0153Z" fill="#005399"/>
<path d="M119.94 17.5252C120.722 15.6246 121.168 13.5492 121.065 11.4884C120.984 10.4617 120.765 9.4495 120.386 8.51013C119.983 7.57805 119.435 6.72607 118.785 5.96875C119.347 6.79888 119.786 7.68727 120.071 8.62665C120.334 9.5733 120.422 10.5418 120.393 11.503C120.269 13.4327 119.647 15.2823 118.72 16.9717C117.799 18.6684 116.637 20.2195 115.359 21.6758C115.315 21.7196 115.278 21.7632 115.234 21.8142L115.483 21.8943C116.096 22.0836 116.579 22.4987 116.871 23.0303C116.9 22.9938 116.922 22.9574 116.951 22.921C118.121 21.2389 119.165 19.4548 119.94 17.5398V17.5252Z" fill="#31AAE1"/>
<path d="M115.673 19.8724C116.711 18.4597 117.639 16.945 118.34 15.3211C118.53 14.928 118.655 14.491 118.808 14.0833C118.889 13.8794 118.932 13.6536 118.991 13.4424C119.042 13.2239 119.115 13.0201 119.151 12.8016C119.333 11.9351 119.414 11.0467 119.371 10.1656C119.304 9.28447 119.115 8.41792 118.772 7.61691C118.413 6.82318 117.924 6.10227 117.354 5.46875C117.85 6.16782 118.238 6.92513 118.494 7.71886C118.727 8.51987 118.815 9.3573 118.786 10.1729C118.677 11.8186 118.107 13.3915 117.289 14.8188C116.47 16.2459 115.447 17.5567 114.322 18.7728C113.657 19.5083 112.941 20.2 112.203 20.8627L114.373 21.5399C114.826 21.001 115.264 20.4477 115.673 19.8796V19.8724Z" fill="#31AAE1"/>
<path d="M111.026 20.3819C112.349 19.2605 113.613 18.0445 114.774 16.6536C115.476 15.7579 116.17 14.8403 116.718 13.7481C117.258 12.6631 117.704 11.4397 117.799 10.0634L117.828 9.54641C117.828 9.37164 117.807 9.19688 117.791 9.02211C117.777 8.84734 117.762 8.67258 117.74 8.49781L117.624 7.97351C117.58 7.79874 117.55 7.62398 117.485 7.4565L117.287 6.96132C117.171 6.62636 116.981 6.33508 116.813 6.02924C116.089 4.84958 115.103 3.9903 114.102 3.32766C113.094 2.665 112.042 2.17712 110.99 1.79845C109.938 1.40523 108.878 1.12852 107.819 0.888212C105.7 0.436733 103.589 0.196431 101.484 0.0799198C99.3803 -0.0365907 97.2907 -0.0438727 95.2084 0.0435103C93.1262 0.138175 91.0586 0.269249 88.9982 0.516834C87.9681 0.626064 86.938 0.72801 85.915 0.888212C84.8922 1.04113 83.862 1.15764 82.8466 1.33969C78.7697 1.98778 74.7441 2.89074 70.7549 3.91749C68.7604 4.41994 66.7877 5.01706 64.8151 5.59233L61.878 6.53898C60.899 6.8521 59.9346 7.21619 58.9628 7.55117C55.0979 8.94201 51.2914 10.4858 47.5873 12.248C43.8831 14.0102 40.2812 15.9909 36.9131 18.3138C40.3834 16.1511 44.0584 14.338 47.8138 12.7505C51.5764 11.1703 55.4194 9.80127 59.3135 8.59975C60.2926 8.30849 61.257 7.99536 62.2433 7.73321L65.1877 6.92492C67.1676 6.43703 69.1402 5.94185 71.1276 5.52679C75.1094 4.68937 79.1131 3.97574 83.1387 3.52427C84.1471 3.39319 85.1552 3.32037 86.1635 3.21842C87.1717 3.1092 88.18 3.05094 89.1882 2.99269C91.2047 2.83977 93.2212 2.80336 95.2303 2.80336C97.2396 2.80336 99.2414 2.9053 101.221 3.1092C103.194 3.31309 105.152 3.62621 107.015 4.1141C107.943 4.36897 108.856 4.65296 109.704 5.01706C110.559 5.36658 111.362 5.78894 112.034 6.28411C112.714 6.772 113.255 7.33999 113.569 7.92254C113.883 8.50509 113.992 9.09492 113.919 9.75758C113.846 10.4202 113.569 11.1412 113.16 11.8621C112.758 12.5829 112.188 13.282 111.603 13.9665C110.982 14.6365 110.31 15.2918 109.594 15.9109C109.156 16.2894 108.703 16.6463 108.243 17.0031L110.924 20.2945C110.924 20.2945 110.982 20.3455 111.012 20.3746L111.026 20.3819Z" fill="#005399"/>
<path d="M115.129 23.0263L111.037 21.7519C110.635 21.6281 110.277 21.3879 110.007 21.0602L106.756 17.0697C106.529 16.793 106.193 16.6328 105.835 16.6328H83.3689C83.062 16.6328 82.7843 16.8512 82.7552 17.1571C82.7187 17.5066 82.9962 17.7978 83.3396 17.7978H89.2284C89.5352 17.7978 89.8129 18.0164 89.8421 18.3221C89.8786 18.6717 89.601 18.963 89.2576 18.963H83.3689C83.062 18.963 82.7843 19.1814 82.7552 19.4873C82.7187 19.8368 82.9962 20.128 83.3396 20.128H90.8649C91.1717 20.128 91.4494 20.3465 91.4787 20.6523C91.5152 21.0019 91.2375 21.2932 90.8942 21.2932H85.7068C85.4 21.2932 85.1224 21.5117 85.0931 21.8175C85.0566 22.167 85.3343 22.4583 85.6776 22.4583H89.6959C90.0028 22.4583 90.2805 22.6767 90.3096 22.9826C90.3462 23.3322 90.0686 23.6234 89.7252 23.6234H88.0448C87.738 23.6234 87.4603 23.8419 87.431 24.1477C87.3945 24.4972 87.6722 24.7885 88.0156 24.7885H92.034C92.3408 24.7885 92.6184 25.0069 92.6477 25.3128C92.6842 25.6623 92.4066 25.9537 92.0631 25.9537H85.7068C85.4 25.9537 85.1224 26.1721 85.0931 26.478C85.0566 26.8275 85.3343 27.1187 85.6776 27.1187H93.4367C93.7435 27.1187 94.0212 27.3372 94.0505 27.643C94.087 27.9925 93.8093 28.2838 93.4659 28.2838H89.1699C88.8557 28.2911 88.6001 28.546 88.6001 28.8664C88.6001 29.1867 88.8557 29.4416 89.1699 29.4489H106.142C106.412 29.4489 106.639 29.6382 106.683 29.9004C106.902 31.2257 108.056 32.2379 109.452 32.2379C110.847 32.2379 112.002 31.2257 112.221 29.9004C112.265 29.6382 112.491 29.4489 112.761 29.4489H114.785C115.443 29.4489 115.976 28.9173 115.976 28.262V24.1622C115.976 23.6453 115.64 23.1864 115.143 23.0263H115.129ZM96.8268 26.7473C94.5399 26.7473 92.6915 24.8977 92.6915 22.6257C92.6915 20.3538 94.5472 18.5043 96.8268 18.5043C99.1063 18.5043 100.962 20.3538 100.962 22.6257C100.962 24.8977 99.1063 26.7473 96.8268 26.7473ZM103.022 21.4534C102.774 21.4534 102.569 21.2495 102.569 21.0019V18.1692C102.569 17.9216 102.774 17.7178 103.022 17.7178H105.565C105.704 17.7178 105.835 17.7833 105.923 17.8926L108.692 21.4461H103.022V21.4534ZM109.444 31.0801C108.546 31.0801 107.808 30.3519 107.808 29.4489C107.808 28.546 108.538 27.8178 109.444 27.8178C110.35 27.8178 111.081 28.546 111.081 29.4489C111.081 30.3519 110.35 31.0801 109.444 31.0801Z" fill="#31AAE1"/>
<path d="M71.976 26.2602C71.472 25.8015 71.2527 25.3354 71.3185 24.8695C71.3843 24.3961 71.6911 23.9155 72.2245 23.4276L79.3333 16.954C79.7643 16.5608 80.1736 16.5389 80.5534 16.8812L80.926 17.2161C81.1087 17.3837 81.1964 17.5657 81.1817 17.755C81.1671 17.9444 81.0576 18.1337 80.8603 18.3157L74.5185 24.083" fill="#005399"/>
<path d="M76.4494 19.7266C76.9535 20.1853 77.1727 20.6514 77.107 21.1175C77.0412 21.5908 76.7343 22.0713 76.201 22.5592L69.0922 29.0328C68.6611 29.4261 68.2519 29.4479 67.872 29.1056L67.4994 28.7707C67.3168 28.6033 67.2291 28.4211 67.2438 28.2318C67.2583 28.0426 67.368 27.8532 67.5652 27.6711L73.9068 21.9039" fill="#005399"/>
<path d="M73.9068 24.083L67.5652 18.3157C67.3606 18.1337 67.251 17.9444 67.2438 17.755C67.2291 17.5657 67.3168 17.3837 67.4994 17.2161L67.872 16.8812C68.2519 16.5389 68.6611 16.5608 69.0922 16.954L76.201 23.4276C76.7417 23.9155 77.0412 24.3961 77.107 24.8695C77.1727 25.3428 76.9535 25.8015 76.4494 26.2602" fill="#005399"/>
<path d="M74.5278 21.8961L80.8696 27.6634C81.0742 27.8454 81.1838 28.0347 81.191 28.2241C81.2057 28.4134 81.118 28.5954 80.9354 28.763L80.5627 29.0979C80.1828 29.4401 79.7736 29.4183 79.3426 29.0251L72.2338 22.5514C71.6931 22.0636 71.3936 21.583 71.3278 21.1096C71.262 20.6363 71.4812 20.1776 71.9854 19.7188" fill="#005399"/>
<path d="M97.094 23.9993C97.0719 23.7736 97.0428 23.5478 97.0209 23.3293C96.977 22.8634 96.9259 22.3973 96.8821 21.9312C96.8747 21.8584 96.8821 21.7784 96.8528 21.7054C96.8309 21.6545 96.7724 21.5962 96.7213 21.5817C96.641 21.5598 96.5898 21.6254 96.5752 21.6982C96.5168 21.9458 96.4656 22.1933 96.4145 22.4409C96.3487 22.7396 96.2903 23.0381 96.2245 23.3367C96.2245 23.3657 96.2026 23.3949 96.1807 23.4531C96.1222 23.3221 96.0784 23.2055 96.02 23.1109C95.9833 23.0526 95.9103 22.9871 95.8519 22.9871C95.7935 22.9871 95.7058 23.0526 95.6838 23.1036C95.6108 23.3221 95.4719 23.3731 95.2528 23.3657C94.8729 23.3439 94.4856 23.3585 94.0984 23.3657C94.0035 23.3657 93.9523 23.3439 93.9158 23.2565C93.6016 22.5793 93.5212 21.8948 93.8792 21.2103C94.4126 20.2055 95.8446 19.9869 96.6117 20.788C96.6556 20.839 96.6994 20.8899 96.7505 20.9482C96.7724 20.9263 96.787 20.919 96.8017 20.8972C97.3642 20.1691 98.4821 20.1325 99.1616 20.6714C99.578 20.9991 99.7972 21.4288 99.8484 21.9531C99.8921 22.4119 99.7826 22.8342 99.6 23.2493C99.5633 23.3367 99.5123 23.3731 99.41 23.3731C99.1031 23.3731 98.8035 23.3731 98.4967 23.3731C98.4236 23.3731 98.3798 23.3511 98.3433 23.2857C98.2994 23.191 98.2556 23.0963 98.1898 23.0162C98.1533 22.9652 98.0729 22.9216 98.0218 22.9216C97.9707 22.9216 97.8975 22.9798 97.8756 23.0308C97.788 23.2129 97.7222 23.3949 97.6345 23.5769C97.62 23.6133 97.5688 23.657 97.5396 23.657C97.3277 23.657 97.2035 23.7517 97.1524 23.9556C97.1524 23.9702 97.1377 23.992 97.1231 24.0066C97.1158 24.0066 97.1012 24.0066 97.094 24.0066V23.9993ZM94.1568 23.6716C94.2665 23.8026 94.3687 23.9338 94.4856 24.0576C95.1212 24.6911 95.8738 25.1644 96.6482 25.6159C96.7286 25.6669 96.7944 25.6595 96.8675 25.6159C97.2766 25.3537 97.7003 25.1062 98.1021 24.8294C98.5186 24.5455 98.9131 24.225 99.2419 23.8246C99.2784 23.7736 99.3149 23.7226 99.3661 23.6425C99.0373 23.6425 98.7378 23.6425 98.4456 23.6425C98.3068 23.6425 98.2117 23.5842 98.1387 23.4677C98.1168 23.4241 98.0875 23.3877 98.0437 23.3221C97.978 23.475 97.9195 23.6061 97.8684 23.7298C97.8172 23.861 97.7296 23.941 97.5761 23.9338C97.4738 23.9264 97.43 23.9702 97.4008 24.0648C97.335 24.2833 97.2547 24.4945 97.1816 24.7056C97.1524 24.7784 97.1012 24.8367 97.0209 24.8148C96.9698 24.8003 96.9259 24.7348 96.8893 24.6838C96.8747 24.6619 96.8747 24.6255 96.8747 24.5891C96.8675 24.4727 96.8528 24.3489 96.8454 24.2323C96.8017 23.759 96.7505 23.2929 96.7067 22.8196C96.7067 22.776 96.6847 22.7322 96.6775 22.6812C96.6044 22.8852 96.5679 23.0818 96.524 23.2783C96.4802 23.475 96.451 23.6716 96.3926 23.861C96.3779 23.9192 96.3049 23.992 96.2464 24.0066C96.2026 24.0138 96.1295 23.941 96.0857 23.8974C96.0565 23.8682 96.0491 23.8172 96.0272 23.7808C95.9761 23.6643 95.9177 23.5478 95.8445 23.3877C95.735 23.657 95.5305 23.6425 95.3259 23.6352C94.9824 23.6352 94.6464 23.6352 94.303 23.6352C94.2591 23.6352 94.2154 23.6352 94.1788 23.6352L94.1568 23.6716Z" fill="#3AD8B2"/>
</g>
</svg>
