<svg width="24" height="24" viewBox="0 0 24 24" fill="none" xmlns="http://www.w3.org/2000/svg">
<path d="M12.1364 2.25091C6.65292 2.17684 2.17636 6.65341 2.25042 12.1368C2.32354 17.3958 6.60557 21.6778 11.8645 21.7509C17.3489 21.8259 21.8245 17.3493 21.7495 11.8659C21.6773 6.60606 17.3953 2.32403 12.1364 2.25091ZM18.0623 17.5908C18.0436 17.6109 18.0207 17.6268 17.9953 17.6371C17.9698 17.6475 17.9423 17.6521 17.9149 17.6507C17.8874 17.6493 17.8606 17.6418 17.8363 17.6289C17.8121 17.6159 17.791 17.5978 17.7745 17.5758C17.3552 17.0272 16.8417 16.5575 16.2581 16.1887C15.0646 15.4228 13.5524 15.0009 12.0004 15.0009C10.4484 15.0009 8.9362 15.4228 7.74276 16.1887C7.15911 16.5574 6.64565 17.0269 6.22636 17.5753C6.20988 17.5973 6.18877 17.6154 6.16451 17.6284C6.14024 17.6413 6.11343 17.6488 6.08596 17.6502C6.0585 17.6517 6.03105 17.647 6.00558 17.6367C5.9801 17.6263 5.95722 17.6105 5.93854 17.5903C4.56308 16.1055 3.78393 14.1653 3.75042 12.1415C3.67401 7.58013 7.41698 3.76216 11.9803 3.75091C16.5435 3.73966 20.2504 7.44513 20.2504 12.0009C20.252 14.0734 19.4704 16.07 18.0623 17.5908Z" fill="#005399"/>
<path d="M12.0004 6.75091C11.076 6.75091 10.2403 7.09731 9.64636 7.72684C9.05245 8.35638 8.75573 9.22684 8.82276 10.1611C8.9587 12.0009 10.3842 13.5009 12.0004 13.5009C13.6167 13.5009 15.0393 12.0009 15.1781 10.1615C15.2474 9.23622 14.9531 8.37372 14.3493 7.73247C13.7531 7.09966 12.9187 6.75091 12.0004 6.75091Z" fill="#005399"/>
</svg>
