<svg width="20" height="20" viewBox="0 0 20 20" fill="none" xmlns="http://www.w3.org/2000/svg">
<path fill-rule="evenodd" clip-rule="evenodd" d="M3.75 7.22656C3.75 3.89896 6.57899 1.25 10 1.25C13.421 1.25 16.25 3.89896 16.25 7.22656C16.25 9.10252 15.2357 11.4235 14.1246 13.4296C12.9969 15.4658 11.6981 17.3003 11.0016 18.2409C10.8867 18.398 10.7364 18.5259 10.5629 18.6142C10.3885 18.7029 10.1957 18.7492 10 18.7492C9.80434 18.7492 9.61146 18.7029 9.43708 18.6142C9.26356 18.5259 9.11327 18.398 8.99834 18.2408C8.30187 17.2999 7.0031 15.4647 5.87536 13.4283C4.76432 11.422 3.75 9.10119 3.75 7.22656ZM10 2.5C7.21007 2.5 5 4.64713 5 7.22656C5 8.75037 5.86068 10.8215 6.96888 12.8227C8.05739 14.7883 9.3182 16.5716 10 17.493C10.6818 16.5721 11.9426 14.7894 13.0311 12.824C14.1393 10.8232 15 8.75177 15 7.22656C15 4.64713 12.7899 2.5 10 2.5Z" fill="#8E8E8E"/>
<path fill-rule="evenodd" clip-rule="evenodd" d="M10 6.25C9.30964 6.25 8.75 6.80964 8.75 7.5C8.75 8.19036 9.30964 8.75 10 8.75C10.6904 8.75 11.25 8.19036 11.25 7.5C11.25 6.80964 10.6904 6.25 10 6.25ZM7.5 7.5C7.5 6.11929 8.61929 5 10 5C11.3807 5 12.5 6.11929 12.5 7.5C12.5 8.88071 11.3807 10 10 10C8.61929 10 7.5 8.88071 7.5 7.5Z" fill="#8E8E8E"/>
</svg>
