<svg width="20" height="20" viewBox="0 0 20 20" fill="none" xmlns="http://www.w3.org/2000/svg">
<path fill-rule="evenodd" clip-rule="evenodd" d="M1.875 10C1.875 5.5142 5.5142 1.875 10 1.875C14.4858 1.875 18.125 5.5142 18.125 10C18.125 14.4858 14.4858 18.125 10 18.125C5.5142 18.125 1.875 14.4858 1.875 10ZM10 3.125C6.20455 3.125 3.125 6.20455 3.125 10C3.125 13.7954 6.20455 16.875 10 16.875C13.7954 16.875 16.875 13.7954 16.875 10C16.875 6.20455 13.7954 3.125 10 3.125Z" fill="#8E8E8E"/>
<path fill-rule="evenodd" clip-rule="evenodd" d="M10 4.375C10.3452 4.375 10.625 4.65482 10.625 5V10H13.75C14.0952 10 14.375 10.2798 14.375 10.625C14.375 10.9702 14.0952 11.25 13.75 11.25H10C9.65482 11.25 9.375 10.9702 9.375 10.625V5C9.375 4.65482 9.65482 4.375 10 4.375Z" fill="#8E8E8E"/>
</svg>
