<svg width="18" height="18" viewBox="0 0 18 18" fill="none" xmlns="http://www.w3.org/2000/svg">
<path d="M15.2498 13.5846C15.2498 14.0449 14.8767 14.418 14.4165 14.418C13.9563 14.418 13.5832 14.0449 13.5832 13.5846C13.5832 13.1244 13.9563 12.7513 14.4165 12.7513C14.8767 12.7513 15.2498 13.1244 15.2498 13.5846Z" fill="#8E8E8E"/>
<path d="M4.4165 3.58464C4.4165 4.04487 4.04341 4.41797 3.58317 4.41797C3.12293 4.41797 2.74984 4.04487 2.74984 3.58464C2.74984 3.1244 3.12293 2.7513 3.58317 2.7513C4.04341 2.7513 4.4165 3.1244 4.4165 3.58464Z" fill="#8E8E8E"/>
<path fill-rule="evenodd" clip-rule="evenodd" d="M0.0415039 3.3824C0.0415039 1.49654 1.67022 0.0429688 3.58317 0.0429688C5.49612 0.0429688 7.12484 1.49654 7.12484 3.3824C7.12484 5.07096 6.08666 7.06387 4.36213 7.80084C3.86668 8.01257 3.29966 8.01257 2.80421 7.80084C1.07968 7.06387 0.0415039 5.07096 0.0415039 3.3824ZM3.58317 1.29297C2.27446 1.29297 1.2915 2.26998 1.2915 3.3824C1.2915 4.66862 2.11513 6.14701 3.29541 6.6514C3.47712 6.72905 3.68922 6.72905 3.87093 6.6514C5.05121 6.14701 5.87484 4.66862 5.87484 3.3824C5.87484 2.26998 4.89188 1.29297 3.58317 1.29297ZM8.37484 3.16797C8.37484 2.82279 8.65466 2.54297 8.99984 2.54297H12.4431C14.7358 2.54297 15.6077 5.53714 13.6734 6.76803L4.99736 12.2892C4.11815 12.8487 4.51447 14.2096 5.5566 14.2096H7.49095L7.3079 14.0266C7.06382 13.7825 7.06382 13.3868 7.3079 13.1427C7.55197 12.8986 7.9477 12.8986 8.19178 13.1427L9.44178 14.3927C9.68586 14.6368 9.68586 15.0325 9.44178 15.2766L8.19178 16.5266C7.9477 16.7707 7.55197 16.7707 7.3079 16.5266C7.06382 16.2825 7.06382 15.8868 7.3079 15.6427L7.49095 15.4596H5.5566C3.2639 15.4596 2.39202 12.4655 4.32627 11.2346L13.0023 5.71345C13.8815 5.15395 13.4852 3.79297 12.4431 3.79297H8.99984C8.65466 3.79297 8.37484 3.51315 8.37484 3.16797ZM10.8748 13.3824C10.8748 11.4965 12.5036 10.043 14.4165 10.043C16.3295 10.043 17.9582 11.4965 17.9582 13.3824C17.9582 15.071 16.92 17.0639 15.1955 17.8008C14.7 18.0126 14.133 18.0126 13.6375 17.8008C11.913 17.0639 10.8748 15.071 10.8748 13.3824ZM14.4165 11.293C13.1078 11.293 12.1248 12.27 12.1248 13.3824C12.1248 14.6686 12.9485 16.147 14.1287 16.6514C14.3105 16.7291 14.5226 16.7291 14.7043 16.6514C15.8845 16.147 16.7082 14.6686 16.7082 13.3824C16.7082 12.27 15.7252 11.293 14.4165 11.293Z" fill="#8E8E8E"/>
</svg>
