<svg width="20" height="20" viewBox="0 0 20 20" fill="none" xmlns="http://www.w3.org/2000/svg">
<path d="M9.9998 10C7.93339 10 6.11307 8.05859 5.93729 5.67188C5.84745 4.46094 6.22245 3.33984 6.99198 2.51563C7.7498 1.69922 8.82011 1.25 9.9998 1.25C11.1717 1.25 12.2381 1.70312 12.9998 2.52344C13.7732 3.35547 14.1482 4.47266 14.0584 5.67188C13.8826 8.05859 12.0623 10 9.9998 10ZM9.9998 2.5C9.17167 2.5 8.42558 2.80859 7.90605 3.36719C7.3787 3.93359 7.12089 4.72266 7.18339 5.58203C7.30839 7.30078 8.59745 8.75391 9.99589 8.75391C11.3943 8.75391 12.6834 7.30078 12.8084 5.58203C12.8709 4.73437 12.6131 3.94922 12.0779 3.375C11.5623 2.80859 10.8201 2.5 9.9998 2.5Z" fill="#005399"/>
<path d="M16.8748 18.7499H3.1248C2.7498 18.7499 2.41386 18.5937 2.17949 18.3163C1.92558 18.0116 1.82402 17.5976 1.89824 17.1796C2.22636 15.3515 3.25761 13.8124 4.8748 12.7382C6.3123 11.7812 8.13262 11.2538 9.9998 11.2538C11.867 11.2538 13.6873 11.7812 15.1248 12.7382C16.742 13.8163 17.7732 15.3515 18.1014 17.1796C18.1756 17.5976 18.074 18.0116 17.8201 18.3163C17.5857 18.5937 17.2498 18.7499 16.8748 18.7499ZM3.13261 17.4999H16.867C16.8748 17.4804 16.8787 17.4491 16.8709 17.3984C16.2654 14.0351 12.8826 12.4999 9.9998 12.4999C7.11699 12.4999 3.73418 14.0351 3.12871 17.3984C3.1209 17.4491 3.1248 17.4804 3.13261 17.4999Z" fill="#005399"/>
</svg>
