<svg width="20" height="20" viewBox="0 0 20 20" fill="none" xmlns="http://www.w3.org/2000/svg">
<path d="M14.2374 12.0766C14.0066 11.8098 13.2542 11.5871 12.2581 11.4379C11.262 11.2887 10.8988 11.25 10.0081 11.25C9.11752 11.25 8.71244 11.3141 7.75775 11.4379C6.80306 11.5617 6.08627 11.782 5.77884 12.0766C5.31751 12.5234 5.9933 13.025 6.52377 13.0859C7.03783 13.1445 8.06556 13.123 10.0124 13.123C11.9593 13.123 12.987 13.1445 13.5011 13.0859C14.0308 13.0215 14.6581 12.5547 14.2374 12.0766Z" fill="#8E8E8E"/>
<path d="M16.8585 9.49414C16.8563 9.46312 16.8428 9.434 16.8204 9.41237C16.7981 9.39074 16.7685 9.37813 16.7374 9.37695C16.2761 9.36055 15.8078 9.39336 14.9769 9.63828C14.553 9.76203 14.1549 9.96132 13.8019 10.2266C13.7128 10.2961 13.7445 10.484 13.8562 10.5039C14.541 10.5842 15.2299 10.6247 15.9195 10.625C16.3331 10.625 16.7601 10.5078 16.8394 10.1391C16.8798 9.92645 16.8863 9.70878 16.8585 9.49414Z" fill="#8E8E8E"/>
<path d="M3.14212 9.49414C3.14432 9.46312 3.15789 9.434 3.18024 9.41237C3.20259 9.39074 3.23214 9.37813 3.26322 9.37695C3.72455 9.36055 4.19291 9.39336 5.02377 9.63828C5.44766 9.76203 5.84571 9.96132 6.19876 10.2266C6.28783 10.2961 6.25619 10.484 6.14447 10.5039C5.45964 10.5842 4.77071 10.6247 4.08119 10.625C3.66751 10.625 3.24056 10.5078 3.16126 10.1391C3.12084 9.92645 3.11438 9.70878 3.14212 9.49414Z" fill="#8E8E8E"/>
<path fill-rule="evenodd" clip-rule="evenodd" d="M10.0004 3.75C9.35343 3.75 8.46655 3.79022 7.58862 3.90482C6.72649 4.01736 5.80741 4.20941 5.13726 4.54334C4.39377 4.91382 3.93829 5.56079 3.6259 6.12573C3.48499 6.38054 3.36325 6.63793 3.25876 6.85884L3.24564 6.88657C3.20671 6.87898 3.16648 6.875 3.12533 6.875H2.50033C2.15515 6.875 1.87533 7.15482 1.87533 7.5C1.87533 7.74096 2.01168 7.95006 2.21144 8.05437C2.20349 8.05883 2.19548 8.06329 2.18742 8.06777C2.14031 8.09394 2.08846 8.12213 2.03462 8.15139L2.03455 8.15143L2.03449 8.15146C1.91161 8.21825 1.77839 8.29066 1.66776 8.35754C1.51259 8.45134 1.30193 8.59048 1.15314 8.788C1.04998 8.92493 0.990058 9.08979 0.952946 9.20834C0.910743 9.34316 0.874671 9.49766 0.843511 9.65939C0.780961 9.98403 0.730383 10.3792 0.693813 10.7898C0.621301 11.6039 0.598226 12.5439 0.66546 13.1897C0.729606 13.8058 0.821826 14.299 0.899213 14.6419C0.937919 14.8134 0.972957 14.9475 0.998995 15.0408C1.01202 15.0874 1.02279 15.1239 1.03066 15.1497C1.03459 15.1626 1.0378 15.1729 1.0402 15.1805L1.0412 15.1836C1.04196 15.186 1.04262 15.1881 1.04317 15.1898L1.04419 15.1929L1.04457 15.1941L1.04481 15.1948C1.04484 15.1949 1.04487 15.195 1.56283 15.0249L1.04488 15.195C1.12116 15.4273 1.32464 15.5914 1.56283 15.6204V15.625C1.56283 15.9702 1.84265 16.25 2.18783 16.25H4.37533C4.72051 16.25 5.00033 15.9702 5.00033 15.625C5.33769 15.6247 5.58249 15.5616 5.80916 15.5031L5.86402 15.489C6.09757 15.4294 6.39004 15.3587 6.9105 15.3098L6.91101 15.3097C8.12369 15.1946 9.31479 15.1562 10.0004 15.1562C10.6867 15.1562 11.9167 15.1946 13.128 15.3097L13.1281 15.3097C13.649 15.3591 13.9433 15.4298 14.1779 15.4895L14.2053 15.4965C14.2147 15.4989 14.2241 15.5013 14.2336 15.5037C14.4512 15.5596 14.6857 15.6199 15.0003 15.6247V15.625C15.0003 15.9702 15.2802 16.25 15.6253 16.25H17.8128C18.158 16.25 18.4378 15.9702 18.4378 15.625V15.6203C18.6757 15.5911 18.8789 15.4271 18.9551 15.195L18.4378 15.0251C18.9551 15.195 18.9551 15.1949 18.9552 15.1948L18.9552 15.1946L18.9558 15.1929L18.9568 15.1898C18.9576 15.1874 18.9586 15.1843 18.9598 15.1805C18.961 15.1768 18.9623 15.1725 18.9639 15.1675C18.9655 15.1623 18.9673 15.1563 18.9693 15.1497C18.9772 15.1239 18.988 15.0874 19.001 15.0408C19.027 14.9475 19.0621 14.8134 19.1008 14.6419C19.1782 14.299 19.2704 13.8058 19.3345 13.1897C19.4018 12.5439 19.3785 11.6038 19.306 10.7898C19.2694 10.3793 19.2189 9.98418 19.1565 9.65968C19.1255 9.49802 19.0895 9.34366 19.0475 9.20901C19.0106 9.09063 18.9511 8.92607 18.8486 8.78931L18.8476 8.788C18.6986 8.59022 18.4877 8.45118 18.3325 8.35756C18.222 8.29093 18.0889 8.21875 17.9661 8.15218C17.9121 8.12289 17.86 8.09468 17.8128 8.06851C17.8046 8.06395 17.7964 8.05939 17.7883 8.05485C17.9886 7.95071 18.1253 7.74133 18.1253 7.5C18.1253 7.15482 17.8455 6.875 17.5003 6.875H16.8753C16.8341 6.875 16.7938 6.87899 16.7548 6.88662L16.7423 6.86022C16.6375 6.6388 16.5155 6.38083 16.3742 6.12549C16.0617 5.56059 15.6061 4.91353 14.8629 4.5442C14.194 4.2118 13.2754 4.01946 12.4131 3.90634C11.5352 3.79115 10.6478 3.75 10.0004 3.75ZM2.12042 14.375L2.11854 14.3667C2.05081 14.0666 1.96725 13.6223 1.90874 13.0603C1.85332 12.5279 1.8697 11.6775 1.93888 10.9007C1.97316 10.5158 2.019 10.1655 2.07094 9.89587C2.09702 9.76049 2.12271 9.65572 2.14586 9.58178C2.15315 9.5585 2.15916 9.54167 2.16352 9.53023C2.18279 9.51417 2.22694 9.48016 2.31443 9.42727C2.40086 9.37502 2.49017 9.32655 2.59666 9.26876L2.59674 9.26872L2.59679 9.26869C2.65646 9.23631 2.72152 9.201 2.7945 9.16045C2.94551 9.07655 3.12352 8.97437 3.3027 8.84768L9.99936 8.84769L16.696 8.84769C16.8761 8.97509 17.0551 9.07765 17.2068 9.16176C17.2802 9.20244 17.3455 9.2378 17.4054 9.27022C17.5116 9.3277 17.6006 9.3759 17.6869 9.42794C17.7732 9.48003 17.8172 9.51373 17.8368 9.52989C17.8411 9.54138 17.847 9.55811 17.8542 9.58111C17.8773 9.65522 17.903 9.76012 17.929 9.89558C17.9808 10.1653 18.0266 10.5158 18.0609 10.9007C18.1301 11.6776 18.1467 12.528 18.0912 13.0603C18.0327 13.6223 17.9492 14.0666 17.8814 14.3667L17.8796 14.375H15.041C14.8669 14.375 14.7612 14.3481 14.5165 14.2858L14.4859 14.278C14.2108 14.2081 13.8502 14.1226 13.2461 14.0653C11.9902 13.946 10.7203 13.9062 10.0004 13.9062C9.27977 13.9062 8.04912 13.946 6.79313 14.0653L6.79287 14.0653C6.18864 14.1222 5.82929 14.2078 5.55472 14.2779L5.52419 14.2857C5.28089 14.3479 5.17486 14.375 4.99804 14.375H2.12042ZM16.6958 8.84753L3.3027 8.84768C3.31709 8.83751 3.33148 8.82718 3.34587 8.81669C3.39182 8.80757 3.4492 8.79671 3.51862 8.78451C3.75378 8.74319 4.12685 8.68649 4.66178 8.62927C5.73188 8.51479 7.44768 8.39844 10.0003 8.39844C12.553 8.39844 14.2688 8.51479 15.3389 8.62927C15.8738 8.68649 16.2469 8.74319 16.482 8.78451C16.5501 8.79648 16.6067 8.80716 16.6522 8.81617C16.6667 8.82679 16.6813 8.83724 16.6958 8.84753ZM15.6158 7.40216C15.6149 7.40021 15.614 7.39827 15.6131 7.39633C15.5063 7.17085 15.4013 6.94911 15.2804 6.73056C15.0099 6.24155 14.7087 5.86342 14.3066 5.66361C13.8302 5.42687 13.0817 5.25476 12.2505 5.14571C11.4351 5.03874 10.6029 5 10.0004 5C9.39733 5 8.56546 5.03791 7.75042 5.1443C6.91958 5.25276 6.17148 5.42458 5.69475 5.66213C5.29137 5.86314 4.99001 6.24195 4.71979 6.73062C4.59922 6.94866 4.49458 7.16973 4.38815 7.39457L4.38813 7.39461C4.38694 7.39714 4.38574 7.39966 4.38455 7.40219C4.43141 7.39691 4.4795 7.39163 4.52882 7.38636C5.64964 7.26646 7.41039 7.14844 10.0003 7.14844C12.5903 7.14844 14.351 7.26646 15.4718 7.38636C15.5211 7.39162 15.569 7.39689 15.6158 7.40216Z" fill="#8E8E8E"/>
</svg>
